<svg width="268" height="281" viewBox="0 0 268 281" fill="none" xmlns="http://www.w3.org/2000/svg">
<g clip-path="url(#clip0_88_137)">
<rect width="268" height="281" rx="15" fill="#9B9B9B"/>
<path d="M-29 156H319V337H-29V156Z" fill="#282828"/>
<path d="M19.126 253.367C19.3734 253.169 19.6598 253.012 19.9854 252.898C20.3109 252.785 20.6494 252.728 21.001 252.728C21.3558 252.728 21.6895 252.791 22.002 252.918L22.0117 252.825H23.2471L23.0371 255.047C23.0241 255.158 23.0176 255.288 23.0176 255.438C23.0176 255.779 23.1999 255.95 23.5645 255.95C24.0007 255.95 24.3132 255.709 24.502 255.228C24.5996 254.977 24.6484 254.661 24.6484 254.28C24.6484 253.896 24.5687 253.528 24.4092 253.177C24.2529 252.822 24.0251 252.516 23.7256 252.259C23.0843 251.709 22.2347 251.434 21.1768 251.434C19.9626 251.434 18.9746 251.787 18.2129 252.493C17.3958 253.245 16.9873 254.173 16.9873 255.276C16.9873 256.175 17.3112 256.902 17.959 257.459C18.6393 258.042 19.5687 258.333 20.7471 258.333C21.4274 258.333 22.0866 258.25 22.7246 258.084C23.3203 257.934 23.7191 257.765 23.9209 257.576L23.9502 257.591L23.4863 258.763C22.6725 259.173 21.7122 259.378 20.6055 259.378C19.0983 259.378 17.9118 259.035 17.0459 258.348C16.1702 257.648 15.7324 256.673 15.7324 255.423C15.7324 255.302 15.7454 255.089 15.7715 254.783C15.8008 254.477 15.8903 254.137 16.04 253.763C16.1898 253.385 16.3867 253.03 16.6309 252.698C16.875 252.366 17.1598 252.06 17.4854 251.78C17.8141 251.5 18.1738 251.258 18.5645 251.053C19.3913 250.626 20.2767 250.413 21.2207 250.413C22.2103 250.413 23.0778 250.59 23.8232 250.945C24.4971 251.268 25.0195 251.72 25.3906 252.303C25.7389 252.853 25.9131 253.457 25.9131 254.114C25.9131 254.655 25.8203 255.115 25.6348 255.496C25.4525 255.877 25.2474 256.178 25.0195 256.399C24.5508 256.849 24.0234 257.073 23.4375 257.073C22.8516 257.073 22.4089 256.909 22.1094 256.58C21.6146 256.909 21.0726 257.073 20.4834 257.073C19.79 257.073 19.2383 256.875 18.8281 256.478C18.444 256.106 18.252 255.644 18.252 255.091C18.252 254.723 18.3366 254.393 18.5059 254.1C18.6751 253.807 18.8818 253.562 19.126 253.367ZM21.8896 254.08C21.6455 253.927 21.3298 253.851 20.9424 253.851C20.5485 253.851 20.2214 253.95 19.9609 254.148C19.7103 254.337 19.5719 254.581 19.5459 254.881C19.4938 255.363 19.7038 255.685 20.1758 255.848C20.3353 255.9 20.5615 255.926 20.8545 255.926C21.1475 255.926 21.4486 255.835 21.7578 255.652C21.7513 255.561 21.7546 255.47 21.7676 255.379L21.8896 254.08ZM28.5377 256.355C28.5377 256.635 28.5491 256.85 28.5719 257H27.3414V250.018H28.5377V254.295L30.7691 251.897H32.2193L30.2955 253.924L31.3941 255.423C31.6318 255.8 31.8108 256.077 31.9312 256.253L32.2535 256.707C32.3512 256.834 32.4326 256.932 32.4977 257H31.7262C31.4397 257 31.1939 257.024 30.9889 257.073L29.4654 254.847L28.5377 255.833V256.355ZM32.842 250.442C33.1024 250.035 33.3742 249.677 33.6574 249.368L34.7072 250.193C34.5673 250.366 34.437 250.535 34.3166 250.701C34.3166 250.701 34.1913 250.879 33.9406 251.233L32.842 250.442ZM34.1262 256.453C34.1262 256.733 34.1327 256.915 34.1457 257H32.9055V251.897H34.1262V256.453ZM36.6922 256.375C36.6922 256.661 36.7052 256.87 36.7313 257H35.5057V251.897H36.6922V252.332C37.1219 251.977 37.5809 251.8 38.0691 251.8C38.603 251.8 39.0294 251.982 39.3484 252.347C39.6674 252.708 39.827 253.185 39.827 253.777V255.721C39.827 256.271 39.8351 256.601 39.8514 256.712C39.8676 256.823 39.8888 256.894 39.9148 256.927C39.9441 256.959 39.9686 256.989 39.9881 257.015L39.9783 257.034C39.7146 257.011 39.5226 257 39.4021 257H39.0604C38.9562 257 38.8162 257.005 38.6404 257.015V254.354C38.6404 253.4 38.3507 252.923 37.7713 252.923C37.3416 252.923 36.9819 253.144 36.6922 253.587V256.375ZM42.5004 255.643C42.3799 255.802 42.3197 255.929 42.3197 256.023C42.3197 256.115 42.3344 256.186 42.3637 256.238C42.393 256.287 42.4564 256.334 42.5541 256.38C42.7689 256.481 43.1221 256.57 43.6137 256.648C44.1052 256.723 44.4893 256.818 44.766 256.932C45.046 257.046 45.2722 257.186 45.4447 257.352C45.767 257.667 45.9281 258.115 45.9281 258.694C45.9281 259.274 45.7247 259.718 45.3178 260.027C44.9109 260.34 44.307 260.496 43.5063 260.496C42.699 260.496 42.0479 260.32 41.5531 259.969C41.0583 259.617 40.8044 259.15 40.7914 258.567C40.7719 257.89 41.0372 257.4 41.5873 257.098C41.4376 256.974 41.3367 256.829 41.2846 256.663C41.2357 256.494 41.2113 256.302 41.2113 256.087C41.2113 255.726 41.3692 255.42 41.685 255.169C41.3171 254.821 41.1332 254.388 41.1332 253.87C41.1332 253.291 41.3415 252.806 41.7582 252.415C42.1977 252.005 42.7673 251.8 43.4672 251.8C43.835 251.8 44.1801 251.868 44.5023 252.005C44.9255 251.826 45.2364 251.67 45.435 251.536C45.6335 251.399 45.7605 251.3 45.8158 251.238L45.8451 251.243C45.8744 251.321 45.9086 251.432 45.9477 251.575L46.0355 251.927C46.1137 252.216 46.1609 252.415 46.1771 252.522C46.0339 252.679 45.7816 252.789 45.4203 252.854C45.5603 253.125 45.6303 253.411 45.6303 253.714C45.6303 254.017 45.5782 254.292 45.474 254.539C45.3699 254.783 45.2217 254.998 45.0297 255.184C44.6033 255.584 44.0596 255.784 43.3988 255.784C43.0766 255.784 42.7771 255.737 42.5004 255.643ZM42.3734 253.445C42.3279 253.562 42.3051 253.681 42.3051 253.802C42.3051 253.922 42.3295 254.038 42.3783 254.148C42.4304 254.259 42.5053 254.358 42.6029 254.446C42.821 254.642 43.1059 254.739 43.4574 254.739C43.7243 254.739 43.9555 254.65 44.1508 254.471C44.3559 254.275 44.4584 254.041 44.4584 253.768C44.4584 253.491 44.3656 253.268 44.1801 253.099C43.9945 252.929 43.739 252.845 43.4135 252.845C42.8764 252.845 42.5297 253.045 42.3734 253.445ZM43.5697 259.461C44.3705 259.461 44.7709 259.181 44.7709 258.621C44.7709 258.354 44.6407 258.139 44.3803 257.977C44.0873 257.791 43.5844 257.646 42.8715 257.542L42.6176 257.498C42.4027 257.612 42.2449 257.758 42.1439 257.938C42.043 258.117 41.9926 258.286 41.9926 258.445C41.9958 258.608 42.0349 258.748 42.1098 258.865C42.1846 258.982 42.2888 259.085 42.4223 259.173C42.7185 259.365 43.101 259.461 43.5697 259.461ZM49.1533 255.926C49.5732 255.926 49.8613 255.817 50.0176 255.599H50.0566L50.0713 256.731C49.9118 256.891 49.6156 256.997 49.1826 257.049C49.0654 257.065 48.9189 257.073 48.7432 257.073C48.5706 257.073 48.3818 257.041 48.1768 256.976C47.9749 256.91 47.8024 256.805 47.6592 256.658C47.363 256.355 47.2148 255.882 47.2148 255.237V253.021H46.4775C46.4743 252.926 46.4727 252.83 46.4727 252.732V251.98C46.4727 251.925 46.4743 251.897 46.4775 251.897H47.2148V250.506H48.4111V251.897H49.7539V253.021H48.4111V255.013C48.4111 255.524 48.5527 255.815 48.8359 255.887C48.9271 255.913 49.0329 255.926 49.1533 255.926ZM52.1197 256.453C52.1197 256.733 52.1262 256.915 52.1393 257H50.9234V251.897H52.1197V252.273C52.3964 251.958 52.6861 251.8 52.9889 251.8C53.2949 251.8 53.5357 251.837 53.7115 251.912L53.6236 253.226L53.6041 253.24C53.4902 253.038 53.2542 252.938 52.8961 252.938C52.7594 252.938 52.6194 252.985 52.4762 253.079C52.3362 253.17 52.2174 253.292 52.1197 253.445V256.453ZM57.5764 256.697C57.1141 256.948 56.6958 257.073 56.3215 257.073C55.9471 257.073 55.6265 257.039 55.3596 256.971C55.0926 256.899 54.8664 256.795 54.6809 256.658C54.3033 256.382 54.1145 255.981 54.1145 255.457C54.1145 254.988 54.3456 254.598 54.8078 254.285C55.3091 253.947 55.9895 253.777 56.8488 253.777L57.0441 253.782C57.0832 253.785 57.1271 253.789 57.176 253.792C57.2248 253.792 57.2687 253.795 57.3078 253.802C57.2818 253.281 57.0572 252.977 56.634 252.889C56.494 252.859 56.3443 252.845 56.1848 252.845C56.0285 252.845 55.8739 252.859 55.7209 252.889C55.5712 252.915 55.4247 252.951 55.2814 252.996C54.9657 253.097 54.7395 253.213 54.6027 253.343L54.5881 253.333L54.4416 252.254C55.0178 251.951 55.6477 251.8 56.3312 251.8C57.3924 251.8 58.0712 252.182 58.3674 252.947C58.4618 253.191 58.509 253.466 58.509 253.772V255.54C58.509 255.918 58.6424 256.175 58.9094 256.312L58.0256 257.122C57.84 257.024 57.6903 256.883 57.5764 256.697ZM57.3127 254.681C57.2248 254.664 57.1337 254.656 57.0393 254.656H56.8439C56.1245 254.656 55.6672 254.816 55.4719 255.135C55.4133 255.229 55.384 255.328 55.384 255.433C55.384 255.537 55.4019 255.63 55.4377 255.711C55.4768 255.789 55.5402 255.854 55.6281 255.906C55.7974 256.004 56.048 256.053 56.3801 256.053C56.7154 256.053 57.0279 255.973 57.3176 255.813C57.3143 255.778 57.3127 255.74 57.3127 255.701V254.681ZM61.2215 256.375C61.2215 256.661 61.2345 256.87 61.2605 257H60.035V251.897H61.2215V252.332C61.6512 251.977 62.1102 251.8 62.5984 251.8C63.1323 251.8 63.5587 251.982 63.8777 252.347C64.1967 252.708 64.3563 253.185 64.3563 253.777V255.721C64.3563 256.271 64.3644 256.601 64.3807 256.712C64.3969 256.823 64.4181 256.894 64.4441 256.927C64.4734 256.959 64.4979 256.989 64.5174 257.015L64.5076 257.034C64.2439 257.011 64.0519 257 63.9314 257H63.5896C63.4855 257 63.3455 257.005 63.1697 257.015V254.354C63.1697 253.4 62.88 252.923 62.3006 252.923C61.8709 252.923 61.5112 253.144 61.2215 253.587V256.375Z" fill="#FF8A00"/>
<circle cx="180.284" cy="171.022" r="7.02181" fill="#FF8A00"/>
<circle cx="197.728" cy="171.022" r="7.02181" fill="#FF8A00"/>
<path d="M222.044 171.022C222.044 174.9 218.934 178.044 215.096 178.044C211.259 178.044 208.148 174.9 208.148 171.022C208.148 167.144 211.259 164 215.096 164C218.934 164 222.044 167.144 222.044 171.022Z" fill="#FF8A00"/>
<circle cx="232.467" cy="171.022" r="7.02181" fill="#FF8A00"/>
<circle cx="248.91" cy="171.022" r="7.02181" fill="#D9D9D9"/>
<path d="M208.811 183.068L208.891 183.404C208.326 183.665 207.878 184.081 207.547 184.652C207.216 185.217 206.987 185.972 206.859 186.916C206.774 187.508 206.75 188.03 206.787 188.484C206.83 188.937 206.939 189.321 207.115 189.636C207.291 189.956 207.542 190.209 207.867 190.396L207.779 190.708C207.096 190.425 206.624 189.969 206.363 189.34C206.107 188.705 206.051 187.878 206.195 186.86C206.339 185.841 206.619 185.025 207.035 184.412C207.456 183.793 208.048 183.345 208.811 183.068ZM211.139 183.876L210.363 189.396H209.667L210.283 185.004C210.293 184.924 210.307 184.844 210.323 184.764C210.339 184.684 210.357 184.604 210.379 184.524L208.971 184.964L208.955 184.444L210.435 183.876H211.139ZM214.055 183.772C214.626 183.772 215.028 183.862 215.263 184.044C215.503 184.225 215.623 184.497 215.623 184.86C215.623 185.105 215.586 185.348 215.511 185.588C215.436 185.828 215.324 186.03 215.175 186.196C215.026 186.361 214.842 186.454 214.623 186.476L214.615 186.508C214.882 186.556 215.082 186.668 215.215 186.844C215.354 187.014 215.423 187.238 215.423 187.516C215.423 187.926 215.34 188.278 215.175 188.572C215.01 188.86 214.77 189.084 214.455 189.244C214.14 189.404 213.756 189.489 213.303 189.5C213.074 189.505 212.823 189.494 212.551 189.468C212.279 189.446 211.994 189.409 211.695 189.356L211.783 188.812C211.964 188.822 212.138 188.836 212.303 188.852C212.468 188.868 212.631 188.878 212.791 188.884C212.951 188.889 213.106 188.884 213.255 188.868C213.73 188.836 214.092 188.702 214.343 188.468C214.594 188.233 214.719 187.91 214.719 187.5C214.719 187.366 214.69 187.246 214.631 187.14C214.572 187.028 214.474 186.94 214.335 186.876C214.196 186.806 214.007 186.772 213.767 186.772L212.727 186.756L212.799 186.22H213.807C214.202 186.214 214.49 186.105 214.671 185.892C214.858 185.673 214.951 185.358 214.951 184.948C214.951 184.729 214.876 184.582 214.727 184.508C214.583 184.433 214.308 184.396 213.903 184.396C213.706 184.396 213.476 184.404 213.215 184.42C212.959 184.43 212.732 184.444 212.535 184.46L212.511 183.916C212.804 183.868 213.082 183.833 213.343 183.812C213.604 183.785 213.842 183.772 214.055 183.772ZM218.557 183.78C218.867 183.78 219.139 183.806 219.373 183.86C219.613 183.908 219.8 184.004 219.933 184.148C220.072 184.292 220.141 184.502 220.141 184.78C220.141 185.068 220.085 185.337 219.973 185.588C219.867 185.833 219.717 186.07 219.525 186.3C219.333 186.529 219.117 186.761 218.877 186.996L217.069 188.748C217.208 188.737 217.352 188.729 217.501 188.724C217.651 188.718 217.792 188.716 217.925 188.716H219.805L219.709 189.396H216.085L216.149 188.94C216.16 188.881 216.173 188.828 216.189 188.78C216.205 188.726 216.232 188.681 216.269 188.644L218.133 186.836C218.357 186.622 218.568 186.406 218.765 186.188C218.963 185.964 219.12 185.742 219.237 185.524C219.36 185.3 219.421 185.081 219.421 184.868C219.421 184.729 219.384 184.628 219.309 184.564C219.24 184.494 219.136 184.452 218.997 184.436C218.859 184.414 218.693 184.404 218.501 184.404C218.325 184.404 218.157 184.406 217.997 184.412C217.837 184.417 217.669 184.43 217.493 184.452C217.317 184.468 217.112 184.494 216.877 184.532L216.869 183.988C217.131 183.929 217.357 183.886 217.549 183.86C217.741 183.828 217.917 183.806 218.077 183.796C218.243 183.785 218.403 183.78 218.557 183.78ZM223.568 185.5L223.504 186.572L223.552 186.692L223.176 189.396H222.496L223.048 185.5H223.568ZM225.504 185.404L225.336 186.044H225.136C224.901 186.044 224.656 186.121 224.4 186.276C224.149 186.425 223.84 186.638 223.472 186.916L223.44 186.476C223.776 186.134 224.101 185.87 224.416 185.684C224.73 185.497 225.026 185.404 225.304 185.404H225.504ZM227.845 185.404C228.256 185.404 228.573 185.452 228.797 185.548C229.021 185.638 229.17 185.777 229.245 185.964C229.325 186.15 229.341 186.38 229.293 186.652C229.25 186.902 229.17 187.102 229.053 187.252C228.941 187.401 228.784 187.513 228.581 187.588C228.378 187.662 228.122 187.713 227.813 187.74L225.917 187.916L225.989 187.404L227.805 187.228C227.981 187.212 228.122 187.185 228.229 187.148C228.341 187.105 228.426 187.041 228.485 186.956C228.549 186.865 228.594 186.745 228.621 186.596C228.653 186.398 228.64 186.257 228.581 186.172C228.522 186.081 228.424 186.025 228.285 186.004C228.146 185.982 227.97 185.972 227.757 185.972C227.544 185.972 227.362 185.99 227.213 186.028C227.064 186.065 226.938 186.134 226.837 186.236C226.736 186.332 226.653 186.47 226.589 186.652C226.525 186.833 226.469 187.07 226.421 187.364C226.357 187.796 226.354 188.124 226.413 188.348C226.472 188.572 226.584 188.724 226.749 188.804C226.92 188.878 227.141 188.916 227.413 188.916C227.557 188.916 227.712 188.913 227.877 188.908C228.048 188.897 228.216 188.884 228.381 188.868C228.546 188.852 228.701 188.836 228.845 188.82L228.893 189.276C228.76 189.329 228.597 189.372 228.405 189.404C228.213 189.436 228.018 189.457 227.821 189.468C227.629 189.484 227.456 189.492 227.301 189.492C226.853 189.492 226.501 189.417 226.245 189.268C225.994 189.113 225.826 188.878 225.741 188.564C225.661 188.244 225.653 187.841 225.717 187.356C225.77 186.972 225.848 186.654 225.949 186.404C226.05 186.148 226.184 185.948 226.349 185.804C226.514 185.66 226.72 185.558 226.965 185.5C227.21 185.436 227.504 185.404 227.845 185.404ZM233.766 185.5C233.713 185.772 233.643 186.044 233.558 186.316C233.478 186.588 233.39 186.846 233.294 187.092C233.203 187.337 233.113 187.561 233.022 187.764C232.905 188.025 232.785 188.265 232.662 188.484C232.539 188.697 232.433 188.865 232.342 188.988C232.278 189.078 232.211 189.156 232.142 189.22C232.073 189.278 231.993 189.324 231.902 189.356C231.817 189.382 231.707 189.396 231.574 189.396H230.974C230.921 189.396 230.873 189.38 230.83 189.348C230.787 189.31 230.761 189.265 230.75 189.212L229.99 185.5H230.702L231.294 188.86H231.422C231.518 188.86 231.598 188.846 231.662 188.82C231.726 188.788 231.793 188.724 231.862 188.628C231.931 188.537 232.019 188.396 232.126 188.204C232.233 188.006 232.345 187.766 232.462 187.484C232.617 187.137 232.737 186.814 232.822 186.516C232.913 186.217 232.993 185.878 233.062 185.5H233.766ZM235.416 185.5L234.872 189.396H234.2L234.744 185.5H235.416ZM235.456 183.844C235.531 183.844 235.584 183.865 235.616 183.908C235.648 183.95 235.659 184.004 235.648 184.068L235.592 184.524C235.571 184.652 235.496 184.716 235.368 184.716H235.056C234.907 184.716 234.84 184.641 234.856 184.492L234.92 184.044C234.936 183.91 235.008 183.844 235.136 183.844H235.456ZM238.361 185.404C238.771 185.404 239.089 185.452 239.313 185.548C239.537 185.638 239.686 185.777 239.761 185.964C239.841 186.15 239.857 186.38 239.809 186.652C239.766 186.902 239.686 187.102 239.569 187.252C239.457 187.401 239.299 187.513 239.097 187.588C238.894 187.662 238.638 187.713 238.329 187.74L236.433 187.916L236.505 187.404L238.321 187.228C238.497 187.212 238.638 187.185 238.745 187.148C238.857 187.105 238.942 187.041 239.001 186.956C239.065 186.865 239.11 186.745 239.137 186.596C239.169 186.398 239.155 186.257 239.097 186.172C239.038 186.081 238.939 186.025 238.801 186.004C238.662 185.982 238.486 185.972 238.273 185.972C238.059 185.972 237.878 185.99 237.729 186.028C237.579 186.065 237.454 186.134 237.353 186.236C237.251 186.332 237.169 186.47 237.105 186.652C237.041 186.833 236.985 187.07 236.937 187.364C236.873 187.796 236.87 188.124 236.929 188.348C236.987 188.572 237.099 188.724 237.265 188.804C237.435 188.878 237.657 188.916 237.929 188.916C238.073 188.916 238.227 188.913 238.393 188.908C238.563 188.897 238.731 188.884 238.897 188.868C239.062 188.852 239.217 188.836 239.361 188.82L239.409 189.276C239.275 189.329 239.113 189.372 238.921 189.404C238.729 189.436 238.534 189.457 238.337 189.468C238.145 189.484 237.971 189.492 237.817 189.492C237.369 189.492 237.017 189.417 236.761 189.268C236.51 189.113 236.342 188.878 236.257 188.564C236.177 188.244 236.169 187.841 236.233 187.356C236.286 186.972 236.363 186.654 236.465 186.404C236.566 186.148 236.699 185.948 236.865 185.804C237.03 185.66 237.235 185.558 237.481 185.5C237.726 185.436 238.019 185.404 238.361 185.404ZM241.21 185.5L241.762 188.86H241.866C241.935 188.86 241.999 188.841 242.058 188.804C242.116 188.766 242.178 188.692 242.242 188.58C242.311 188.457 242.383 188.302 242.458 188.116C242.538 187.924 242.612 187.713 242.682 187.484C242.74 187.308 242.791 187.137 242.834 186.972C242.882 186.801 242.924 186.614 242.962 186.412C243.004 186.204 243.05 185.956 243.098 185.668C243.108 185.614 243.13 185.574 243.162 185.548C243.199 185.516 243.242 185.5 243.29 185.5H244.034C244.082 185.5 244.122 185.516 244.154 185.548C244.186 185.58 244.204 185.617 244.21 185.66L244.602 188.86H244.698C244.767 188.86 244.828 188.836 244.882 188.788C244.935 188.74 244.983 188.681 245.026 188.612C245.132 188.446 245.228 188.286 245.314 188.132C245.399 187.977 245.492 187.761 245.594 187.484C245.716 187.169 245.818 186.849 245.898 186.524C245.983 186.198 246.055 185.857 246.114 185.5H246.826C246.767 185.756 246.7 186.014 246.626 186.276C246.556 186.537 246.479 186.793 246.394 187.044C246.308 187.289 246.215 187.529 246.114 187.764C245.996 188.025 245.874 188.27 245.746 188.5C245.623 188.724 245.516 188.894 245.426 189.012C245.362 189.097 245.295 189.169 245.226 189.228C245.162 189.281 245.09 189.324 245.01 189.356C244.935 189.382 244.844 189.396 244.738 189.396H244.29C244.231 189.396 244.183 189.38 244.146 189.348C244.108 189.31 244.084 189.265 244.074 189.212L243.706 185.948H243.602C243.586 186.097 243.559 186.27 243.522 186.468C243.49 186.66 243.447 186.86 243.394 187.068C243.346 187.27 243.292 187.465 243.234 187.652C243.186 187.806 243.132 187.961 243.074 188.116C243.015 188.27 242.954 188.414 242.89 188.548C242.826 188.681 242.762 188.796 242.698 188.892C242.623 189.02 242.54 189.121 242.45 189.196C242.359 189.27 242.263 189.324 242.162 189.356C242.06 189.382 241.954 189.396 241.842 189.396H241.442C241.388 189.396 241.34 189.38 241.298 189.348C241.26 189.31 241.236 189.265 241.226 189.212L240.506 185.5H241.21ZM249.054 185.404C249.236 185.404 249.425 185.412 249.622 185.428C249.82 185.438 250.009 185.452 250.19 185.468C250.377 185.484 250.545 185.502 250.694 185.524L250.606 186.012C250.361 186.001 250.116 185.993 249.87 185.988C249.625 185.982 249.358 185.977 249.07 185.972C248.846 185.972 248.665 185.98 248.526 185.996C248.388 186.006 248.284 186.041 248.214 186.1C248.145 186.153 248.102 186.244 248.086 186.372C248.065 186.532 248.097 186.649 248.182 186.724C248.268 186.793 248.393 186.865 248.558 186.94L249.646 187.42C249.849 187.505 250.012 187.596 250.134 187.692C250.257 187.782 250.342 187.894 250.39 188.028C250.438 188.156 250.449 188.321 250.422 188.524C250.385 188.812 250.289 189.025 250.134 189.164C249.985 189.297 249.782 189.382 249.526 189.42C249.27 189.462 248.961 189.484 248.598 189.484C248.348 189.484 248.148 189.478 247.998 189.468C247.854 189.457 247.718 189.444 247.59 189.428C247.462 189.412 247.302 189.393 247.11 189.372L247.19 188.876C247.318 188.886 247.454 188.894 247.598 188.9C247.742 188.905 247.886 188.91 248.03 188.916C248.174 188.916 248.31 188.916 248.438 188.916C248.769 188.91 249.025 188.897 249.206 188.876C249.388 188.849 249.518 188.804 249.598 188.74C249.684 188.676 249.737 188.582 249.758 188.46C249.774 188.348 249.764 188.262 249.726 188.204C249.689 188.145 249.63 188.097 249.55 188.06C249.47 188.017 249.372 187.969 249.254 187.916L248.166 187.436C247.985 187.35 247.833 187.26 247.71 187.164C247.593 187.068 247.51 186.953 247.462 186.82C247.414 186.681 247.401 186.516 247.422 186.324C247.454 186.068 247.534 185.873 247.662 185.74C247.796 185.606 247.977 185.516 248.206 185.468C248.441 185.42 248.724 185.398 249.054 185.404ZM251.486 183.084C252.169 183.356 252.641 183.806 252.902 184.436C253.169 185.06 253.227 185.894 253.078 186.94C252.929 187.953 252.643 188.766 252.222 189.38C251.806 189.993 251.217 190.441 250.454 190.724L250.382 190.388C250.953 190.11 251.401 189.681 251.726 189.1C252.057 188.513 252.286 187.769 252.414 186.868C252.499 186.27 252.521 185.745 252.478 185.292C252.441 184.833 252.334 184.446 252.158 184.132C251.982 183.812 251.729 183.566 251.398 183.396L251.486 183.084Z" fill="#FF8A00"/>
<path d="M194.73 182.41L192.431 186.755C192.38 186.85 192.358 186.92 192.365 186.964C192.38 187.008 192.435 187.03 192.53 187.03H196.787L196.622 188.196L195.808 188.383H190.957C190.708 188.383 190.506 188.328 190.352 188.218C190.198 188.101 190.103 187.95 190.066 187.767C190.037 187.576 190.073 187.386 190.176 187.195L192.761 182.41H194.73ZM196.413 183.895L195.555 190H193.674L194.345 185.083L194.84 183.895H196.413ZM198.421 188.13C198.649 188.13 198.821 188.192 198.938 188.317C199.063 188.434 199.111 188.614 199.081 188.856L199.004 189.351C198.982 189.571 198.909 189.736 198.784 189.846C198.667 189.949 198.487 190 198.245 190H197.838C197.332 190 197.109 189.758 197.167 189.274L197.233 188.779C197.299 188.346 197.556 188.13 198.003 188.13H198.421ZM204.01 182.41L202.943 190H200.886L201.623 184.918C201.645 184.764 201.671 184.614 201.7 184.467C201.73 184.313 201.77 184.163 201.821 184.016L200.006 184.456L199.841 183.191L202.019 182.41H204.01Z" fill="#FF8A00"/>
<rect x="178.255" y="242.273" width="77.3166" height="26.7267" rx="5" fill="#363636"/>
<path d="M189.628 258.645C189.524 258.632 189.353 258.625 189.116 258.625H188.579C188.491 258.625 188.411 258.629 188.339 258.635L188.334 258.625C188.347 258.603 188.354 258.577 188.354 258.547C188.354 258.518 188.351 258.487 188.344 258.455C188.341 258.422 188.328 258.363 188.305 258.279C188.282 258.194 188.247 258.072 188.198 257.913L187.993 257.258L186.176 252.112C186.378 252.125 186.635 252.131 186.948 252.131C187.26 252.131 187.46 252.118 187.548 252.092L189.018 256.531L190.307 252.112C190.502 252.125 190.743 252.131 191.03 252.131C191.42 252.131 191.648 252.118 191.713 252.092L189.931 257.244C189.931 257.244 189.874 257.434 189.76 257.815C189.666 258.14 189.619 258.352 189.619 258.45C189.619 258.544 189.625 258.604 189.638 258.63L189.628 258.645ZM192.732 252.112C193.057 252.125 193.254 252.131 193.322 252.131H193.674C193.846 252.131 193.985 252.118 194.089 252.092L194.084 258.625H192.732V252.112ZM199.087 257.454C199.288 257.454 199.428 257.434 199.507 257.395L199.526 257.4L199.477 258.625H195.82V252.097C195.908 252.104 196.006 252.109 196.113 252.112L196.455 252.122C196.683 252.128 196.93 252.131 197.197 252.131C197.942 252.131 198.68 252.118 199.409 252.092C199.373 252.379 199.355 252.761 199.355 253.24C199.355 253.292 199.358 253.331 199.365 253.357L199.355 253.372C199.186 253.323 198.945 253.298 198.633 253.298H197.094V254.543H198.252C198.61 254.543 198.825 254.534 198.896 254.514L198.911 255.72C198.755 255.704 198.553 255.696 198.305 255.696H197.094V257.454H199.087ZM203.054 258.645C202.956 258.632 202.79 258.625 202.556 258.625H201.99C201.879 258.625 201.788 258.629 201.716 258.635L201.711 258.625C201.724 258.603 201.731 258.577 201.731 258.547C201.731 258.518 201.728 258.487 201.721 258.455C201.718 258.422 201.705 258.363 201.682 258.279C201.662 258.194 201.631 258.072 201.589 257.913L199.929 252.112C200.137 252.125 200.39 252.131 200.686 252.131C200.982 252.131 201.174 252.118 201.262 252.092L202.414 256.511L203.537 252.112C203.586 252.115 203.63 252.118 203.669 252.122H203.777C203.884 252.128 204.019 252.131 204.182 252.131C204.345 252.131 204.512 252.118 204.685 252.092L205.827 256.511L206.809 252.112C207.004 252.125 207.26 252.131 207.575 252.131C207.891 252.131 208.083 252.118 208.152 252.092L206.745 257.244C206.566 257.836 206.472 258.188 206.462 258.298C206.452 258.409 206.448 258.486 206.448 258.528C206.448 258.57 206.454 258.604 206.467 258.63L206.457 258.645C206.353 258.632 206.189 258.625 205.964 258.625C205.769 258.625 205.591 258.625 205.432 258.625C205.272 258.625 205.157 258.629 205.085 258.635L205.08 258.625C205.093 258.603 205.1 258.577 205.1 258.547C205.1 258.518 205.098 258.489 205.095 258.459C205.092 258.43 205.082 258.375 205.066 258.293C205.053 258.209 205.03 258.085 204.997 257.922L204.866 257.258L204.065 254.216L203.303 257.244C203.147 257.865 203.065 258.223 203.059 258.318C203.046 258.497 203.047 258.601 203.064 258.63L203.054 258.645ZM212.107 252.097C212.559 252.039 213.023 252.009 213.499 252.009C214.384 252.009 215.056 252.218 215.515 252.634C215.977 253.048 216.208 253.668 216.208 254.495C216.208 255.234 215.956 255.818 215.452 256.248C214.98 256.651 214.373 256.853 213.63 256.853C213.546 256.853 213.453 256.848 213.352 256.838V258.625H212.107V252.097ZM213.645 253.186C213.547 253.186 213.45 253.189 213.352 253.196V255.764C213.456 255.777 213.583 255.784 213.733 255.784C213.883 255.784 214.039 255.753 214.202 255.691C214.364 255.626 214.501 255.536 214.612 255.422C214.843 255.185 214.958 254.872 214.958 254.485C214.958 253.619 214.521 253.186 213.645 253.186ZM219.209 256.101C219.111 256.108 219.007 256.111 218.897 256.111C218.786 256.111 218.622 256.103 218.403 256.086V258.625H217.109V252.097C217.565 252.039 218.125 252.009 218.789 252.009C219.694 252.009 220.368 252.177 220.811 252.512C221.257 252.844 221.48 253.359 221.48 254.055C221.48 254.596 221.276 255.058 220.869 255.442C220.736 255.566 220.583 255.673 220.41 255.764L221.406 257.864C221.602 258.297 221.751 258.554 221.856 258.635L221.831 258.66C221.515 258.608 221.019 258.609 220.342 258.665L219.209 256.101ZM218.882 253.162C218.716 253.162 218.556 253.17 218.403 253.186V255.051C218.563 255.074 218.75 255.085 218.965 255.085C219.18 255.085 219.36 255.068 219.507 255.032C219.653 254.993 219.78 254.934 219.888 254.856C220.119 254.683 220.234 254.425 220.234 254.08C220.234 253.735 220.114 253.492 219.873 253.352C219.649 253.225 219.318 253.162 218.882 253.162ZM223.372 257.854C223.076 257.571 222.841 257.231 222.669 256.833C222.499 256.436 222.415 256.002 222.415 255.53C222.415 255.055 222.494 254.605 222.654 254.182C222.814 253.759 223.041 253.386 223.338 253.064C223.634 252.742 223.992 252.486 224.412 252.297C224.832 252.105 225.302 252.009 225.823 252.009C226.721 252.009 227.478 252.292 228.093 252.859C228.751 253.464 229.08 254.281 229.08 255.31C229.08 256.306 228.741 257.135 228.064 257.795C227.647 258.202 227.151 258.482 226.575 258.635C226.292 258.71 225.96 258.748 225.579 258.748C225.201 258.748 224.812 258.669 224.412 258.513C224.015 258.357 223.668 258.137 223.372 257.854ZM223.772 255.461C223.772 255.764 223.823 256.042 223.924 256.296C224.024 256.55 224.164 256.768 224.343 256.951C224.724 257.335 225.214 257.527 225.813 257.527C226.383 257.527 226.84 257.343 227.185 256.975C227.537 256.594 227.713 256.075 227.713 255.417C227.713 254.799 227.545 254.283 227.21 253.87C226.848 253.427 226.354 253.206 225.725 253.206C225.117 253.206 224.633 253.43 224.275 253.879C223.94 254.299 223.772 254.827 223.772 255.461ZM233.662 255.818C233.506 255.802 233.304 255.793 233.057 255.793H231.577V258.625H230.24V252.097C230.327 252.104 230.428 252.109 230.542 252.112L230.904 252.122C231.151 252.128 231.408 252.131 231.675 252.131C232.476 252.131 233.241 252.118 233.97 252.092C233.934 252.379 233.916 252.761 233.916 253.24C233.916 253.292 233.92 253.331 233.926 253.357L233.916 253.372C233.744 253.323 233.503 253.298 233.194 253.298H231.577V254.641H233.003C233.361 254.641 233.576 254.631 233.648 254.612L233.662 255.818ZM235.281 252.112C235.607 252.125 235.804 252.131 235.872 252.131H236.224C236.396 252.131 236.534 252.118 236.639 252.092L236.634 258.625H235.281V252.112ZM239.322 258.625C238.843 258.625 238.526 258.635 238.37 258.655V252.102C238.448 252.122 238.609 252.131 238.853 252.131C239.1 252.131 239.387 252.125 239.712 252.112V257.454H240.723C241.016 257.454 241.25 257.444 241.426 257.424C241.403 258.186 241.392 258.582 241.392 258.611V258.66C241.073 258.637 240.538 258.625 239.786 258.625H239.322ZM245.716 257.454C245.918 257.454 246.058 257.434 246.136 257.395L246.155 257.4L246.107 258.625H242.449V252.097C242.537 252.104 242.635 252.109 242.742 252.112L243.084 252.122C243.312 252.128 243.559 252.131 243.826 252.131C244.572 252.131 245.309 252.118 246.038 252.092C246.002 252.379 245.984 252.761 245.984 253.24C245.984 253.292 245.988 253.331 245.994 253.357L245.984 253.372C245.815 253.323 245.574 253.298 245.262 253.298H243.724V254.543H244.881C245.239 254.543 245.454 254.534 245.525 254.514L245.54 255.72C245.384 255.704 245.182 255.696 244.935 255.696H243.724V257.454H245.716Z" fill="#FF8A00"/>
<rect x="139" y="242.273" width="32.4539" height="26.7267" rx="5" fill="#363636"/>
<g clip-path="url(#clip1_88_137)">
<path d="M147.839 257.369C148.172 256.772 148.07 256.038 147.585 255.549C146.862 254.818 146.475 253.94 146.475 253.027C146.475 250.955 148.64 248.851 151.904 248.851C155.168 248.851 157.333 250.955 157.333 253.027C157.333 255.098 155.168 257.203 151.904 257.203C151.459 257.203 151.029 257.16 150.621 257.085C150.269 257.02 149.902 257.066 149.58 257.222C149.441 257.291 149.298 257.356 149.152 257.418C148.609 257.653 148.036 257.859 147.459 258.005C147.554 257.855 147.642 257.708 147.727 257.562C147.764 257.5 147.802 257.434 147.836 257.369H147.839ZM144.846 253.027C144.846 254.39 145.43 255.64 146.404 256.625C146.373 256.681 146.339 256.74 146.309 256.792C145.959 257.392 145.552 257.983 145.067 258.491C144.843 258.72 144.785 259.053 144.911 259.336C145.043 259.627 145.335 259.813 145.661 259.813C147.12 259.813 148.596 259.379 149.824 258.844C149.987 258.772 150.15 258.697 150.306 258.622C150.818 258.72 151.354 258.769 151.904 258.769C155.803 258.769 158.961 256.198 158.961 253.027C158.961 249.856 155.803 247.285 151.904 247.285C148.005 247.285 144.846 249.856 144.846 253.027ZM159.504 262.945C160.054 262.945 160.587 262.893 161.103 262.798C161.259 262.873 161.421 262.948 161.584 263.02C162.813 263.555 164.289 263.989 165.748 263.989C166.073 263.989 166.365 263.803 166.494 263.516C166.623 263.229 166.562 262.896 166.338 262.671C165.856 262.162 165.449 261.571 165.096 260.971C165.066 260.916 165.032 260.86 165.001 260.805C165.978 259.816 166.562 258.567 166.562 257.203C166.562 254.123 163.579 251.608 159.837 251.467C159.976 251.963 160.047 252.485 160.047 253.027V253.046C163.006 253.265 164.933 255.249 164.933 257.203C164.933 258.116 164.546 258.994 163.824 259.721C163.339 260.211 163.237 260.948 163.569 261.542C163.607 261.607 163.644 261.672 163.678 261.734C163.763 261.881 163.854 262.028 163.946 262.178C163.369 262.031 162.796 261.829 162.253 261.591C162.107 261.529 161.964 261.464 161.825 261.395C161.503 261.239 161.136 261.193 160.784 261.258C160.373 261.336 159.945 261.376 159.501 261.376C157.407 261.376 155.769 260.511 154.859 259.343C154.316 259.519 153.746 259.65 153.163 259.728C154.313 261.633 156.722 262.945 159.504 262.945Z" fill="#FF8A00"/>
</g>
<circle cx="47" cy="162" r="25" stroke="#282828" stroke-width="8"/>
<circle cx="46.6282" cy="161.628" r="23.4231" fill="#FF8A00"/>
<rect x="189" y="13" width="68" height="20" rx="7" fill="#282828"/>
<path d="M197.865 26.0264C197.725 26.0088 197.363 26 196.78 26H196.639V21.1396H195.769C195.511 21.1396 195.359 21.1528 195.312 21.1792C195.265 21.2056 195.229 21.229 195.202 21.2495L195.189 21.2451V20.1201L195.202 20.1069C195.299 20.1392 195.56 20.1553 195.984 20.1553H198.74C198.998 20.1553 199.15 20.1421 199.197 20.1157C199.244 20.0894 199.28 20.0659 199.307 20.0454L199.32 20.0498V21.1748L199.307 21.188C199.21 21.1558 198.949 21.1396 198.524 21.1396H197.865V26.0264ZM200.654 25.3057C200.387 25.0508 200.176 24.7446 200.021 24.3872C199.868 24.0298 199.792 23.6387 199.792 23.2139C199.792 22.7861 199.864 22.3818 200.008 22.001C200.151 21.6201 200.356 21.2847 200.623 20.9946C200.889 20.7046 201.212 20.4746 201.59 20.3047C201.968 20.1318 202.391 20.0454 202.86 20.0454C203.668 20.0454 204.349 20.3003 204.903 20.8101C205.495 21.355 205.791 22.0903 205.791 23.0161C205.791 23.9126 205.486 24.6582 204.877 25.2529C204.502 25.6191 204.055 25.8711 203.536 26.0088C203.282 26.0762 202.983 26.1099 202.64 26.1099C202.3 26.1099 201.95 26.0396 201.59 25.8989C201.232 25.7583 200.92 25.5605 200.654 25.3057ZM201.014 23.1523C201.014 23.4248 201.059 23.6753 201.15 23.9038C201.241 24.1323 201.367 24.3286 201.528 24.4927C201.871 24.8384 202.312 25.0112 202.851 25.0112C203.364 25.0112 203.775 24.8457 204.086 24.5146C204.402 24.1719 204.56 23.7046 204.56 23.1128C204.56 22.5562 204.41 22.0918 204.108 21.7197C203.783 21.3213 203.337 21.1221 202.772 21.1221C202.224 21.1221 201.789 21.3242 201.467 21.7285C201.165 22.1064 201.014 22.5811 201.014 23.1523ZM206.751 20.1245C207.158 20.0718 207.576 20.0454 208.004 20.0454C208.8 20.0454 209.405 20.2329 209.819 20.6079C210.235 20.98 210.443 21.5381 210.443 22.2822C210.443 22.9473 210.216 23.4731 209.761 23.8599C209.337 24.2231 208.79 24.4048 208.122 24.4048C208.046 24.4048 207.963 24.4004 207.872 24.3916V26H206.751V20.1245ZM208.135 21.1045C208.048 21.1045 207.96 21.1074 207.872 21.1133V23.4248C207.966 23.4365 208.08 23.4424 208.215 23.4424C208.349 23.4424 208.49 23.4146 208.636 23.3589C208.783 23.3003 208.906 23.2197 209.006 23.1172C209.214 22.9033 209.318 22.6221 209.318 22.2734C209.318 21.4941 208.924 21.1045 208.135 21.1045ZM216.041 23.728C215.953 23.7339 215.86 23.7368 215.76 23.7368C215.661 23.7368 215.513 23.7295 215.316 23.7148V26H214.152V20.1245C214.562 20.0718 215.066 20.0454 215.663 20.0454C216.478 20.0454 217.084 20.1963 217.483 20.498C217.884 20.7969 218.085 21.2598 218.085 21.8867C218.085 22.373 217.902 22.7891 217.536 23.1348C217.415 23.2461 217.278 23.3428 217.122 23.4248L218.019 25.3145C218.195 25.7041 218.329 25.9355 218.423 26.0088L218.401 26.0308C218.117 25.9839 217.67 25.9854 217.061 26.0352L216.041 23.728ZM215.747 21.0825C215.598 21.0825 215.454 21.0898 215.316 21.1045V22.7832C215.46 22.8037 215.628 22.814 215.822 22.814C216.015 22.814 216.178 22.7979 216.309 22.7656C216.441 22.7305 216.556 22.6777 216.652 22.6074C216.86 22.4521 216.964 22.2192 216.964 21.9087C216.964 21.5981 216.856 21.3799 216.639 21.2539C216.437 21.1396 216.14 21.0825 215.747 21.0825ZM219.735 26.0352C219.483 26.0117 219.189 26 218.852 26H218.505L220.416 20.6431C220.501 20.4028 220.544 20.2637 220.544 20.2256C220.544 20.1846 220.542 20.1597 220.539 20.1509L220.544 20.1421C220.734 20.1509 220.936 20.1553 221.15 20.1553C221.326 20.1553 221.537 20.1523 221.783 20.1465L221.787 20.1553C221.781 20.167 221.779 20.1831 221.779 20.2036C221.779 20.2593 221.822 20.4072 221.91 20.6475L223.862 26.0132C223.803 26.0103 223.734 26.0088 223.655 26.0088C223.655 26.0088 223.579 26.0059 223.426 26C223.353 26 223.287 26 223.229 26H222.548L222.134 24.7344H220.148L219.735 26.0352ZM221.792 23.6797L221.128 21.6362L220.482 23.6797H221.792ZM226.593 26.0264C226.452 26.0088 226.09 26 225.507 26H225.367V21.1396H224.497C224.239 21.1396 224.086 21.1528 224.04 21.1792C223.993 21.2056 223.956 21.229 223.93 21.2495L223.917 21.2451V20.1201L223.93 20.1069C224.026 20.1392 224.287 20.1553 224.712 20.1553H227.467C227.725 20.1553 227.877 20.1421 227.924 20.1157C227.971 20.0894 228.008 20.0659 228.034 20.0454L228.047 20.0498V21.1748L228.034 21.188C227.938 21.1558 227.677 21.1396 227.252 21.1396H226.593V26.0264ZM231.842 24.9453C232.024 24.9453 232.15 24.9277 232.22 24.8926L232.238 24.897L232.194 26H228.902V20.1245C228.981 20.1304 229.069 20.1348 229.166 20.1377L229.474 20.1465C229.679 20.1523 229.901 20.1553 230.141 20.1553C230.812 20.1553 231.476 20.1436 232.132 20.1201C232.1 20.3779 232.084 20.7222 232.084 21.1528C232.084 21.1997 232.087 21.2349 232.093 21.2583L232.084 21.2715C231.932 21.2275 231.715 21.2056 231.433 21.2056H230.049V22.3262H231.091C231.413 22.3262 231.606 22.3174 231.671 22.2998L231.684 23.3853C231.543 23.3706 231.362 23.3633 231.139 23.3633H230.049V24.9453H231.842ZM234.745 26.1099C234.27 26.1099 233.823 26.0718 233.405 25.9956V20.1157C233.791 20.0688 234.239 20.0454 234.749 20.0454C235.262 20.0454 235.725 20.1157 236.138 20.2563C236.554 20.394 236.901 20.5918 237.179 20.8496C237.742 21.3652 238.023 22.0874 238.023 23.0161C238.023 24.0562 237.71 24.8457 237.083 25.3848C236.52 25.8682 235.741 26.1099 234.745 26.1099ZM234.547 25.0376C234.738 25.0728 234.928 25.0903 235.118 25.0903C235.309 25.0903 235.514 25.0537 235.734 24.9805C235.953 24.9043 236.144 24.7871 236.305 24.6289C236.651 24.2949 236.823 23.8086 236.823 23.1699C236.823 22.1211 236.441 21.4766 235.676 21.2363C235.425 21.1572 235.133 21.1177 234.802 21.1177H234.683C234.639 21.1177 234.594 21.1191 234.547 21.1221V25.0376Z" fill="url(#paint0_linear_88_137)"/>
<g clip-path="url(#clip2_88_137)">
<path d="M247.8 17.1156C247.643 16.9587 247.4 16.9609 247.243 17.1177C246.689 17.6742 246.169 18.2736 245.682 18.9224C245.461 18.613 245.21 18.2757 244.939 18.0007C244.78 17.8418 244.535 17.8418 244.377 18.0029C243.681 18.7119 243.093 19.6486 242.679 20.538C242.271 21.4146 242 22.3105 242 22.9421C242 25.6836 244.005 27.9996 246.5 27.9996C249.023 27.9996 251 25.6814 251 22.94C251 22.115 250.642 21.1074 250.088 20.1105C249.527 19.0986 248.736 18.0437 247.8 17.1156ZM246.466 25.9371C245.958 25.9371 245.508 25.7867 245.084 25.4859C244.238 24.8543 244.011 23.591 244.519 22.5984C244.61 22.405 244.841 22.3921 244.971 22.5554L245.477 23.1849C245.61 23.3482 245.849 23.3439 245.974 23.1742C246.305 22.723 246.898 21.9173 247.235 21.4597C247.362 21.2878 247.603 21.2857 247.731 21.4576C248.41 22.3707 248.752 22.9464 248.752 23.5931C248.75 25.0648 247.733 25.9371 246.466 25.9371Z" fill="url(#paint1_linear_88_137)"/>
</g>
<path d="M19.2886 201.532C19.7118 201.549 19.9678 201.558 20.0566 201.558H20.5137C20.738 201.558 20.9178 201.541 21.0532 201.507L21.0469 210H19.2886V201.532ZM26.4426 203.367H28.1502L29.3308 208.134L30.6004 203.367H32.0603L33.3743 208.235L34.5549 203.367H36.0911L34.136 210H32.492L31.2351 205.652L30.0671 210H28.4358L26.4426 203.367ZM36.7482 201.475C37.0867 200.946 37.4401 200.481 37.8082 200.079L39.173 201.151C38.991 201.376 38.8218 201.596 38.6652 201.812C38.6652 201.812 38.5023 202.042 38.1764 202.503L36.7482 201.475ZM38.4176 209.289C38.4176 209.653 38.4261 209.89 38.443 210H36.8307V203.367H38.4176V209.289ZM41.5567 209.289C41.5567 209.653 41.5651 209.89 41.5821 210H39.9697V200.542H41.5567V209.289ZM44.6894 209.289C44.6894 209.653 44.6978 209.89 44.7147 210H43.1024V200.542H44.6894V209.289ZM55.0871 209.645C54.5496 209.945 54.0122 210.095 53.4748 210.095C52.9373 210.095 52.4676 210.011 52.0656 209.841C51.6636 209.672 51.3208 209.439 51.0373 209.143C50.4533 208.534 50.1613 207.742 50.1613 206.769C50.1613 205.762 50.4998 204.924 51.1769 204.255C51.8582 203.578 52.73 203.24 53.7921 203.24C54.118 203.24 54.4375 203.282 54.7506 203.367V200.542H56.3058V207.328C56.3058 207.89 56.3312 208.259 56.382 208.432C56.437 208.606 56.4963 208.733 56.5597 208.813C56.6274 208.893 56.7121 208.97 56.8136 209.042L55.6203 210.095C55.4002 209.977 55.2225 209.826 55.0871 209.645ZM53.7731 208.635C54.1286 208.635 54.4544 208.568 54.7506 208.432V204.916C54.4544 204.793 54.1328 204.731 53.7858 204.731C53.4388 204.731 53.1405 204.778 52.8908 204.871C52.6453 204.964 52.4338 205.093 52.256 205.258C51.8836 205.605 51.6974 206.056 51.6974 206.61C51.6974 207.215 51.8667 207.698 52.2052 208.058C52.5692 208.443 53.0918 208.635 53.7731 208.635ZM57.6929 206.737C57.6929 206.242 57.7775 205.783 57.9468 205.36C58.1161 204.937 58.3552 204.566 58.6641 204.249C59.3243 203.576 60.1875 203.24 61.2539 203.24C62.1553 203.24 62.8789 203.538 63.4248 204.135C63.9623 204.71 64.231 205.434 64.231 206.306C64.231 206.64 64.2056 206.868 64.1548 206.991C63.7316 207.11 62.8705 207.169 61.5713 207.169H59.337C59.447 207.622 59.703 207.975 60.105 208.229C60.507 208.479 61.0297 208.604 61.6729 208.604C62.3457 208.604 62.9234 208.483 63.4058 208.242C63.5328 208.178 63.628 208.119 63.6914 208.064C63.683 208.242 63.6724 208.424 63.6597 208.61L63.5899 209.6C63.2683 209.82 62.7478 209.972 62.0284 210.057C61.8168 210.083 61.6136 210.095 61.419 210.095C60.3441 210.095 59.4554 209.782 58.753 209.156C58.0463 208.525 57.6929 207.719 57.6929 206.737ZM62.5425 205.938C62.369 205.028 61.8739 204.573 61.0572 204.573C60.4139 204.573 59.9252 204.85 59.5909 205.404C59.4893 205.574 59.411 205.76 59.356 205.963C59.4576 205.967 59.5824 205.971 59.7305 205.976H60.2002C60.3568 205.98 60.507 205.982 60.6509 205.982H61.0127C61.2286 205.982 61.4401 205.98 61.6475 205.976L62.168 205.957C62.3077 205.952 62.4325 205.946 62.5425 205.938ZM67.7192 210.095C66.5258 210.095 65.6266 209.877 65.0214 209.441C65.0299 209.314 65.0426 209.171 65.0595 209.01L65.1166 208.553C65.1505 208.252 65.1716 208.066 65.1801 207.994C65.1886 207.918 65.1949 207.878 65.1991 207.874C65.2034 207.865 65.2372 207.899 65.3007 207.975C65.3642 208.047 65.4848 208.136 65.6625 208.242C65.8403 208.347 66.0455 208.441 66.2782 208.521C66.7818 208.694 67.3066 208.781 67.8525 208.781C68.5846 208.781 68.9506 208.538 68.9506 208.051C68.9506 207.895 68.8808 207.778 68.7411 207.702C68.4915 207.575 68.1233 207.48 67.6366 207.417C67.1542 207.349 66.7586 207.251 66.4496 207.125C66.1407 206.998 65.8889 206.845 65.6943 206.667C65.3346 206.333 65.1547 205.895 65.1547 205.354C65.1547 204.693 65.4086 204.175 65.9164 203.798C66.42 203.426 67.1161 203.24 68.0048 203.24C68.885 203.24 69.6362 203.489 70.2582 203.989C70.2286 204.099 70.1969 204.205 70.163 204.306C70.0657 204.585 69.9937 204.786 69.9472 204.909L69.8012 205.284C69.7927 205.318 69.7864 205.334 69.7822 205.334C69.7737 205.334 69.7398 205.29 69.6806 205.201C69.414 204.892 68.9993 204.689 68.4364 204.592C68.2629 204.558 68.0852 204.541 67.9032 204.541C67.1331 204.541 66.748 204.774 66.748 205.239C66.748 205.4 66.8284 205.523 66.9892 205.607C67.2896 205.768 67.7001 205.887 68.2206 205.963C68.7454 206.039 69.1432 206.143 69.414 206.274C69.6848 206.401 69.9028 206.555 70.0678 206.737C70.3725 207.067 70.5248 207.505 70.5248 208.051C70.5248 208.648 70.2857 209.132 69.8075 209.505C69.3082 209.898 68.6121 210.095 67.7192 210.095ZM71.6644 201.475C72.0029 200.946 72.3563 200.481 72.7244 200.079L74.0892 201.151C73.9072 201.376 73.7379 201.596 73.5813 201.812C73.5813 201.812 73.4184 202.042 73.0926 202.503L71.6644 201.475ZM73.3338 209.289C73.3338 209.653 73.3423 209.89 73.3592 210H71.7469V203.367H73.3338V209.289ZM76.7458 208.235C76.5892 208.443 76.5109 208.608 76.5109 208.73C76.5109 208.849 76.53 208.942 76.568 209.01C76.6061 209.073 76.6887 209.135 76.8156 209.194C77.0949 209.325 77.554 209.441 78.193 209.543C78.832 209.64 79.3314 209.763 79.6911 209.911C80.055 210.059 80.3491 210.241 80.5734 210.457C80.9924 210.868 81.2018 211.449 81.2018 212.203C81.2018 212.956 80.9373 213.534 80.4084 213.936C79.8794 214.342 79.0944 214.545 78.0534 214.545C77.0039 214.545 76.1576 214.316 75.5143 213.859C74.8711 213.402 74.541 212.795 74.5241 212.038C74.4987 211.157 74.8436 210.521 75.5588 210.127C75.3641 209.966 75.2329 209.778 75.1652 209.562C75.1017 209.342 75.07 209.092 75.07 208.813C75.07 208.343 75.2752 207.945 75.6857 207.62C75.2075 207.167 74.9684 206.604 74.9684 205.931C74.9684 205.178 75.2393 204.547 75.7809 204.04C76.3522 203.506 77.0928 203.24 78.0026 203.24C78.4808 203.24 78.9294 203.329 79.3483 203.506C79.8985 203.274 80.3026 203.07 80.5607 202.897C80.8189 202.719 80.9839 202.59 81.0558 202.51L81.0939 202.516C81.132 202.618 81.1764 202.762 81.2272 202.948L81.3415 203.405C81.443 203.781 81.5044 204.04 81.5256 204.179C81.3394 204.382 81.0114 204.526 80.5417 204.611C80.7236 204.962 80.8146 205.334 80.8146 205.728C80.8146 206.122 80.7469 206.479 80.6115 206.801C80.4761 207.118 80.2835 207.397 80.0339 207.639C79.4795 208.159 78.7728 208.419 77.9137 208.419C77.4948 208.419 77.1055 208.358 76.7458 208.235ZM76.5807 205.379C76.5215 205.531 76.4919 205.686 76.4919 205.842C76.4919 205.999 76.5236 206.149 76.5871 206.293C76.6548 206.437 76.7521 206.566 76.8791 206.68C77.1626 206.934 77.5329 207.061 77.9899 207.061C78.3369 207.061 78.6374 206.945 78.8913 206.712C79.1579 206.458 79.2912 206.153 79.2912 205.798C79.2912 205.438 79.1706 205.148 78.9294 204.928C78.6882 204.708 78.356 204.598 77.9328 204.598C77.2346 204.598 76.7839 204.858 76.5807 205.379ZM78.1359 213.199C79.1769 213.199 79.6974 212.835 79.6974 212.107C79.6974 211.76 79.5282 211.481 79.1896 211.27C78.8088 211.028 78.155 210.84 77.2282 210.705L76.8981 210.647C76.6188 210.796 76.4136 210.986 76.2824 211.219C76.1512 211.451 76.0856 211.672 76.0856 211.879C76.0899 212.09 76.1406 212.272 76.238 212.425C76.3353 212.577 76.4707 212.71 76.6442 212.825C77.0293 213.074 77.5265 213.199 78.1359 213.199ZM84.1187 209.188C84.1187 209.56 84.1356 209.831 84.1695 210H82.5762V203.367H84.1187V203.932C84.6773 203.47 85.274 203.24 85.9087 203.24C86.6028 203.24 87.1571 203.477 87.5718 203.951C87.9865 204.42 88.1939 205.04 88.1939 205.811V208.337C88.1939 209.052 88.2045 209.482 88.2256 209.625C88.2468 209.769 88.2743 209.862 88.3082 209.905C88.3462 209.947 88.378 209.985 88.4034 210.019L88.3907 210.044C88.0479 210.015 87.7982 210 87.6417 210H87.1973C87.0619 210 86.8799 210.006 86.6514 210.019V206.56C86.6514 205.32 86.2748 204.7 85.5215 204.7C84.9629 204.7 84.4953 204.987 84.1187 205.563V209.188ZM98.4901 209.606C97.8891 209.932 97.3454 210.095 96.8587 210.095C96.3721 210.095 95.9552 210.051 95.6082 209.962C95.2612 209.869 94.9671 209.733 94.7259 209.556C94.235 209.196 93.9896 208.675 93.9896 207.994C93.9896 207.385 94.29 206.877 94.8909 206.471C95.5426 206.031 96.4271 205.811 97.5443 205.811L97.7982 205.817C97.8489 205.821 97.9061 205.825 97.9696 205.83C98.033 205.83 98.0902 205.834 98.1409 205.842C98.1071 205.165 97.8151 204.77 97.265 204.655C97.083 204.617 96.8883 204.598 96.681 204.598C96.4779 204.598 96.2768 204.617 96.0779 204.655C95.8833 204.689 95.6929 204.736 95.5067 204.795C95.0962 204.926 94.8021 205.076 94.6243 205.246L94.6053 205.233L94.4149 203.83C95.1639 203.437 95.9827 203.24 96.8714 203.24C98.251 203.24 99.1333 203.737 99.5184 204.731C99.6411 205.049 99.7025 205.406 99.7025 205.804V208.102C99.7025 208.593 99.876 208.927 100.223 209.105L99.074 210.159C98.8328 210.032 98.6382 209.848 98.4901 209.606ZM98.1473 206.985C98.033 206.964 97.9145 206.953 97.7918 206.953H97.5379C96.6027 206.953 96.0081 207.16 95.7542 207.575C95.678 207.698 95.64 207.827 95.64 207.962C95.64 208.098 95.6632 208.218 95.7098 208.324C95.7606 208.426 95.8431 208.51 95.9573 208.578C96.1774 208.705 96.5032 208.769 96.9349 208.769C97.3708 208.769 97.777 208.665 98.1536 208.458C98.1494 208.411 98.1473 208.362 98.1473 208.312V206.985ZM108.913 204.097C108.879 204.219 108.862 204.528 108.862 205.023V205.582H107.333V210H105.777V205.582H104.844C104.849 205.303 104.853 205.055 104.857 204.839L104.87 204.16V204.097H105.777V203.703C105.777 202.688 106.014 201.871 106.488 201.253C106.983 200.614 107.665 200.294 108.532 200.294C108.9 200.294 109.144 200.32 109.262 200.371L109.269 201.964L109.256 201.996C109.095 201.835 108.89 201.754 108.64 201.754C108.395 201.754 108.196 201.797 108.044 201.881C107.891 201.962 107.762 202.078 107.656 202.23C107.441 202.535 107.333 202.952 107.333 203.481V204.097H108.913ZM113.931 209.422C113.389 209.871 112.799 210.095 112.16 210.095C111.475 210.095 110.937 209.865 110.548 209.403C110.175 208.955 109.989 208.339 109.989 207.556V205.036C109.989 204.19 109.97 203.705 109.932 203.583C109.898 203.456 109.873 203.375 109.856 203.341C110.051 203.358 110.254 203.367 110.465 203.367H110.992C111.132 203.367 111.316 203.36 111.544 203.348V207.023C111.544 207.895 111.781 208.4 112.255 208.54C112.399 208.582 112.556 208.604 112.725 208.604C113.224 208.604 113.626 208.422 113.931 208.058V203.367H115.505V209.188C115.505 209.56 115.522 209.831 115.556 210H113.931V209.422ZM118.879 209.289C118.879 209.653 118.888 209.89 118.905 210H117.292V200.542H118.879V209.289ZM122.012 209.289C122.012 209.653 122.02 209.89 122.037 210H120.425V200.542H122.012V209.289ZM126.97 203.367H128.677L129.858 208.134L131.127 203.367H132.587L133.901 208.235L135.082 203.367H136.618L134.663 210H133.019L131.762 205.652L130.594 210H128.963L126.97 203.367ZM137.161 206.737C137.161 206.242 137.246 205.783 137.415 205.36C137.584 204.937 137.823 204.566 138.132 204.249C138.792 203.576 139.656 203.24 140.722 203.24C141.623 203.24 142.347 203.538 142.893 204.135C143.43 204.71 143.699 205.434 143.699 206.306C143.699 206.64 143.674 206.868 143.623 206.991C143.2 207.11 142.339 207.169 141.039 207.169H138.805C138.915 207.622 139.171 207.975 139.573 208.229C139.975 208.479 140.498 208.604 141.141 208.604C141.814 208.604 142.391 208.483 142.874 208.242C143.001 208.178 143.096 208.119 143.16 208.064C143.151 208.242 143.14 208.424 143.128 208.61L143.058 209.6C142.736 209.82 142.216 209.972 141.496 210.057C141.285 210.083 141.082 210.095 140.887 210.095C139.812 210.095 138.924 209.782 138.221 209.156C137.514 208.525 137.161 207.719 137.161 206.737ZM142.011 205.938C141.837 205.028 141.342 204.573 140.525 204.573C139.882 204.573 139.393 204.85 139.059 205.404C138.957 205.574 138.879 205.76 138.824 205.963C138.926 205.967 139.05 205.971 139.199 205.976H139.668C139.825 205.98 139.975 205.982 140.119 205.982H140.481C140.697 205.982 140.908 205.98 141.116 205.976L141.636 205.957C141.776 205.952 141.901 205.946 142.011 205.938ZM146.54 203.608C147.014 203.362 147.498 203.24 147.993 203.24C148.489 203.24 148.914 203.318 149.269 203.475C149.629 203.627 149.944 203.847 150.215 204.135C150.803 204.774 151.097 205.582 151.097 206.56C151.097 207.63 150.778 208.493 150.139 209.149C149.525 209.78 148.761 210.095 147.847 210.095C147.043 210.095 146.381 209.886 145.861 209.467C145.277 208.993 144.985 208.339 144.985 207.505V200.555H146.54V203.608ZM146.54 207.486C146.54 208.231 147.003 208.604 147.93 208.604C148.383 208.604 148.764 208.405 149.073 208.007C149.386 207.601 149.542 207.095 149.542 206.49C149.542 205.88 149.377 205.421 149.047 205.112C148.751 204.837 148.353 204.7 147.854 204.7C147.553 204.7 147.221 204.801 146.857 205.004C146.743 205.068 146.637 205.138 146.54 205.214V207.486ZM154.598 210.095C153.405 210.095 152.506 209.877 151.901 209.441C151.909 209.314 151.922 209.171 151.939 209.01L151.996 208.553C152.03 208.252 152.051 208.066 152.059 207.994C152.068 207.918 152.074 207.878 152.078 207.874C152.082 207.865 152.116 207.899 152.18 207.975C152.243 208.047 152.364 208.136 152.542 208.242C152.719 208.347 152.925 208.441 153.157 208.521C153.661 208.694 154.186 208.781 154.732 208.781C155.464 208.781 155.83 208.538 155.83 208.051C155.83 207.895 155.76 207.778 155.62 207.702C155.371 207.575 155.002 207.48 154.516 207.417C154.033 207.349 153.638 207.251 153.329 207.125C153.02 206.998 152.768 206.845 152.573 206.667C152.214 206.333 152.034 205.895 152.034 205.354C152.034 204.693 152.288 204.175 152.796 203.798C153.299 203.426 153.995 203.24 154.884 203.24C155.764 203.24 156.515 203.489 157.137 203.989C157.108 204.099 157.076 204.205 157.042 204.306C156.945 204.585 156.873 204.786 156.826 204.909L156.68 205.284C156.672 205.318 156.665 205.334 156.661 205.334C156.653 205.334 156.619 205.29 156.56 205.201C156.293 204.892 155.878 204.689 155.316 204.592C155.142 204.558 154.964 204.541 154.782 204.541C154.012 204.541 153.627 204.774 153.627 205.239C153.627 205.4 153.707 205.523 153.868 205.607C154.169 205.768 154.579 205.887 155.1 205.963C155.624 206.039 156.022 206.143 156.293 206.274C156.564 206.401 156.782 206.555 156.947 206.737C157.252 207.067 157.404 207.505 157.404 208.051C157.404 208.648 157.165 209.132 156.687 209.505C156.187 209.898 155.491 210.095 154.598 210.095ZM158.543 201.475C158.882 200.946 159.235 200.481 159.604 200.079L160.968 201.151C160.786 201.376 160.617 201.596 160.46 201.812C160.46 201.812 160.298 202.042 159.972 202.503L158.543 201.475ZM160.213 209.289C160.213 209.653 160.221 209.89 160.238 210H158.626V203.367H160.213V209.289ZM164.825 208.604C165.37 208.604 165.745 208.462 165.948 208.178H165.999L166.018 209.651C165.811 209.858 165.425 209.996 164.863 210.063C164.71 210.085 164.52 210.095 164.291 210.095C164.067 210.095 163.822 210.053 163.555 209.968C163.293 209.884 163.068 209.746 162.882 209.556C162.497 209.162 162.305 208.546 162.305 207.708V204.827H161.346C161.342 204.704 161.34 204.579 161.34 204.452V203.475C161.34 203.403 161.342 203.367 161.346 203.367H162.305V201.558H163.86V203.367H165.605V204.827H163.86V207.417C163.86 208.081 164.044 208.46 164.412 208.553C164.53 208.587 164.668 208.604 164.825 208.604ZM166.865 206.737C166.865 206.242 166.95 205.783 167.119 205.36C167.289 204.937 167.528 204.566 167.837 204.249C168.497 203.576 169.36 203.24 170.427 203.24C171.328 203.24 172.052 203.538 172.597 204.135C173.135 204.71 173.404 205.434 173.404 206.306C173.404 206.64 173.378 206.868 173.327 206.991C172.904 207.11 172.043 207.169 170.744 207.169H168.51C168.62 207.622 168.876 207.975 169.278 208.229C169.68 208.479 170.202 208.604 170.845 208.604C171.518 208.604 172.096 208.483 172.578 208.242C172.705 208.178 172.801 208.119 172.864 208.064C172.856 208.242 172.845 208.424 172.832 208.61L172.762 209.6C172.441 209.82 171.92 209.972 171.201 210.057C170.989 210.083 170.786 210.095 170.592 210.095C169.517 210.095 168.628 209.782 167.926 209.156C167.219 208.525 166.865 207.719 166.865 206.737ZM171.715 205.938C171.542 205.028 171.046 204.573 170.23 204.573C169.587 204.573 169.098 204.85 168.763 205.404C168.662 205.574 168.584 205.76 168.529 205.963C168.63 205.967 168.755 205.971 168.903 205.976H169.373C169.529 205.98 169.68 205.982 169.824 205.982H170.185C170.401 205.982 170.613 205.98 170.82 205.976L171.341 205.957C171.48 205.952 171.605 205.946 171.715 205.938ZM182.817 209.422C182.276 209.871 181.685 210.095 181.046 210.095C180.361 210.095 179.823 209.865 179.434 209.403C179.062 208.955 178.876 208.339 178.876 207.556V205.036C178.876 204.19 178.856 203.705 178.818 203.583C178.785 203.456 178.759 203.375 178.742 203.341C178.937 203.358 179.14 203.367 179.352 203.367H179.878C180.018 203.367 180.202 203.36 180.431 203.348V207.023C180.431 207.895 180.668 208.4 181.142 208.54C181.285 208.582 181.442 208.604 181.611 208.604C182.111 208.604 182.513 208.422 182.817 208.058V203.367H184.392V209.188C184.392 209.56 184.409 209.831 184.442 210H182.817V209.422ZM188.527 210.095C187.334 210.095 186.435 209.877 185.829 209.441C185.838 209.314 185.851 209.171 185.868 209.01L185.925 208.553C185.959 208.252 185.98 208.066 185.988 207.994C185.997 207.918 186.003 207.878 186.007 207.874C186.011 207.865 186.045 207.899 186.109 207.975C186.172 208.047 186.293 208.136 186.471 208.242C186.648 208.347 186.854 208.441 187.086 208.521C187.59 208.694 188.115 208.781 188.661 208.781C189.393 208.781 189.759 208.538 189.759 208.051C189.759 207.895 189.689 207.778 189.549 207.702C189.3 207.575 188.931 207.48 188.445 207.417C187.962 207.349 187.567 207.251 187.258 207.125C186.949 206.998 186.697 206.845 186.502 206.667C186.143 206.333 185.963 205.895 185.963 205.354C185.963 204.693 186.217 204.175 186.725 203.798C187.228 203.426 187.924 203.24 188.813 203.24C189.693 203.24 190.444 203.489 191.066 203.989C191.037 204.099 191.005 204.205 190.971 204.306C190.874 204.585 190.802 204.786 190.755 204.909L190.609 205.284C190.601 205.318 190.594 205.334 190.59 205.334C190.582 205.334 190.548 205.29 190.489 205.201C190.222 204.892 189.807 204.689 189.245 204.592C189.071 204.558 188.893 204.541 188.711 204.541C187.941 204.541 187.556 204.774 187.556 205.239C187.556 205.4 187.636 205.523 187.797 205.607C188.098 205.768 188.508 205.887 189.029 205.963C189.553 206.039 189.951 206.143 190.222 206.274C190.493 206.401 190.711 206.555 190.876 206.737C191.181 207.067 191.333 207.505 191.333 208.051C191.333 208.648 191.094 209.132 190.616 209.505C190.116 209.898 189.42 210.095 188.527 210.095ZM192.472 201.475C192.811 200.946 193.164 200.481 193.533 200.079L194.897 201.151C194.715 201.376 194.546 201.596 194.389 201.812C194.389 201.812 194.227 202.042 193.901 202.503L192.472 201.475ZM194.142 209.289C194.142 209.653 194.15 209.89 194.167 210H192.555V203.367H194.142V209.289ZM197.478 209.188C197.478 209.56 197.495 209.831 197.528 210H195.935V203.367H197.478V203.932C198.036 203.47 198.633 203.24 199.268 203.24C199.962 203.24 200.516 203.477 200.931 203.951C201.346 204.42 201.553 205.04 201.553 205.811V208.337C201.553 209.052 201.563 209.482 201.585 209.625C201.606 209.769 201.633 209.862 201.667 209.905C201.705 209.947 201.737 209.985 201.762 210.019L201.75 210.044C201.407 210.015 201.157 210 201.001 210H200.556C200.421 210 200.239 210.006 200.01 210.019V206.56C200.01 205.32 199.634 204.7 198.881 204.7C198.322 204.7 197.854 204.987 197.478 205.563V209.188ZM205.028 208.235C204.872 208.443 204.794 208.608 204.794 208.73C204.794 208.849 204.813 208.942 204.851 209.01C204.889 209.073 204.971 209.135 205.098 209.194C205.377 209.325 205.837 209.441 206.476 209.543C207.115 209.64 207.614 209.763 207.974 209.911C208.338 210.059 208.632 210.241 208.856 210.457C209.275 210.868 209.484 211.449 209.484 212.203C209.484 212.956 209.22 213.534 208.691 213.936C208.162 214.342 207.377 214.545 206.336 214.545C205.287 214.545 204.44 214.316 203.797 213.859C203.154 213.402 202.824 212.795 202.807 212.038C202.781 211.157 203.126 210.521 203.841 210.127C203.647 209.966 203.516 209.778 203.448 209.562C203.384 209.342 203.353 209.092 203.353 208.813C203.353 208.343 203.558 207.945 203.968 207.62C203.49 207.167 203.251 206.604 203.251 205.931C203.251 205.178 203.522 204.547 204.064 204.04C204.635 203.506 205.375 203.24 206.285 203.24C206.763 203.24 207.212 203.329 207.631 203.506C208.181 203.274 208.585 203.07 208.843 202.897C209.101 202.719 209.266 202.59 209.338 202.51L209.377 202.516C209.415 202.618 209.459 202.762 209.51 202.948L209.624 203.405C209.726 203.781 209.787 204.04 209.808 204.179C209.622 204.382 209.294 204.526 208.824 204.611C209.006 204.962 209.097 205.334 209.097 205.728C209.097 206.122 209.03 206.479 208.894 206.801C208.759 207.118 208.566 207.397 208.316 207.639C207.762 208.159 207.055 208.419 206.196 208.419C205.777 208.419 205.388 208.358 205.028 208.235ZM204.863 205.379C204.804 205.531 204.774 205.686 204.774 205.842C204.774 205.999 204.806 206.149 204.87 206.293C204.937 206.437 205.035 206.566 205.162 206.68C205.445 206.934 205.815 207.061 206.273 207.061C206.62 207.061 206.92 206.945 207.174 206.712C207.44 206.458 207.574 206.153 207.574 205.798C207.574 205.438 207.453 205.148 207.212 204.928C206.971 204.708 206.639 204.598 206.215 204.598C205.517 204.598 205.066 204.858 204.863 205.379ZM206.419 213.199C207.46 213.199 207.98 212.835 207.98 212.107C207.98 211.76 207.811 211.481 207.472 211.27C207.091 211.028 206.438 210.84 205.511 210.705L205.181 210.647C204.901 210.796 204.696 210.986 204.565 211.219C204.434 211.451 204.368 211.672 204.368 211.879C204.372 212.09 204.423 212.272 204.521 212.425C204.618 212.577 204.753 212.71 204.927 212.825C205.312 213.074 205.809 213.199 206.419 213.199ZM217.864 208.604C218.409 208.604 218.784 208.462 218.987 208.178H219.038L219.057 209.651C218.85 209.858 218.464 209.996 217.902 210.063C217.749 210.085 217.559 210.095 217.33 210.095C217.106 210.095 216.861 210.053 216.594 209.968C216.332 209.884 216.107 209.746 215.921 209.556C215.536 209.162 215.344 208.546 215.344 207.708V204.827H214.385C214.381 204.704 214.379 204.579 214.379 204.452V203.475C214.379 203.403 214.381 203.367 214.385 203.367H215.344V201.558H216.899V203.367H218.644V204.827H216.899V207.417C216.899 208.081 217.083 208.46 217.451 208.553C217.569 208.587 217.707 208.604 217.864 208.604ZM221.942 209.289C221.942 209.653 221.951 209.89 221.967 210H220.387V200.923H221.942V203.862C222.488 203.447 223.051 203.24 223.631 203.24C224.341 203.24 224.913 203.475 225.344 203.944C225.768 204.414 225.979 205.036 225.979 205.811V208.337C225.979 209.052 225.99 209.482 226.011 209.625C226.032 209.769 226.06 209.862 226.093 209.905C226.132 209.947 226.163 209.985 226.189 210.019L226.176 210.044C225.833 210.015 225.584 210 225.427 210H224.976C224.837 210 224.653 210.006 224.424 210.019V206.344C224.424 205.76 224.295 205.328 224.037 205.049C223.842 204.837 223.578 204.731 223.243 204.731C222.748 204.731 222.314 205.017 221.942 205.588V209.289ZM227.354 206.737C227.354 206.242 227.438 205.783 227.607 205.36C227.777 204.937 228.016 204.566 228.325 204.249C228.985 203.576 229.848 203.24 230.915 203.24C231.816 203.24 232.54 203.538 233.086 204.135C233.623 204.71 233.892 205.434 233.892 206.306C233.892 206.64 233.866 206.868 233.815 206.991C233.392 207.11 232.531 207.169 231.232 207.169H228.998C229.108 207.622 229.364 207.975 229.766 208.229C230.168 208.479 230.69 208.604 231.334 208.604C232.006 208.604 232.584 208.483 233.066 208.242C233.193 208.178 233.289 208.119 233.352 208.064C233.344 208.242 233.333 208.424 233.32 208.61L233.251 209.6C232.929 209.82 232.408 209.972 231.689 210.057C231.477 210.083 231.274 210.095 231.08 210.095C230.005 210.095 229.116 209.782 228.414 209.156C227.707 208.525 227.354 207.719 227.354 206.737ZM232.203 205.938C232.03 205.028 231.535 204.573 230.718 204.573C230.075 204.573 229.586 204.85 229.252 205.404C229.15 205.574 229.072 205.76 229.017 205.963C229.118 205.967 229.243 205.971 229.391 205.976H229.861C230.017 205.98 230.168 205.982 230.312 205.982H230.673C230.889 205.982 231.101 205.98 231.308 205.976L231.829 205.957C231.968 205.952 232.093 205.946 232.203 205.938ZM20.6025 223.188C20.6025 223.56 20.6195 223.831 20.6533 224H19.0601V217.367H20.6025V217.932C21.1611 217.47 21.7578 217.24 22.3926 217.24C23.0866 217.24 23.641 217.477 24.0557 217.951C24.4704 218.42 24.6777 219.04 24.6777 219.811V222.337C24.6777 223.052 24.6883 223.482 24.7095 223.625C24.7306 223.769 24.7581 223.862 24.792 223.905C24.8301 223.947 24.8618 223.985 24.8872 224.019L24.8745 224.044C24.5317 224.015 24.2821 224 24.1255 224H23.6812C23.5457 224 23.3638 224.006 23.1353 224.019V220.56C23.1353 219.32 22.7586 218.7 22.0054 218.7C21.4468 218.7 20.9792 218.987 20.6025 219.563V223.188ZM26.0902 220.737C26.0902 220.242 26.1749 219.783 26.3441 219.36C26.5134 218.937 26.7525 218.566 27.0614 218.249C27.7216 217.576 28.5848 217.24 29.6512 217.24C30.5526 217.24 31.2762 217.538 31.8221 218.135C32.3596 218.71 32.6283 219.434 32.6283 220.306C32.6283 220.64 32.6029 220.868 32.5521 220.991C32.129 221.11 31.2678 221.169 29.9686 221.169H27.7343C27.8443 221.622 28.1003 221.975 28.5023 222.229C28.9043 222.479 29.427 222.604 30.0702 222.604C30.743 222.604 31.3207 222.483 31.8031 222.242C31.9301 222.178 32.0253 222.119 32.0887 222.064C32.0803 222.242 32.0697 222.424 32.057 222.61L31.9872 223.6C31.6656 223.82 31.1451 223.972 30.4257 224.057C30.2141 224.083 30.011 224.095 29.8163 224.095C28.7414 224.095 27.8527 223.782 27.1503 223.156C26.4436 222.525 26.0902 221.719 26.0902 220.737ZM30.9398 219.938C30.7663 219.028 30.2712 218.573 29.4545 218.573C28.8112 218.573 28.3225 218.85 27.9882 219.404C27.8866 219.574 27.8083 219.76 27.7533 219.963C27.8549 219.967 27.9797 219.971 28.1278 219.976H28.5975C28.7541 219.98 28.9043 219.982 29.0482 219.982H29.41C29.6259 219.982 29.8374 219.98 30.0448 219.976L30.5653 219.957C30.705 219.952 30.8298 219.946 30.9398 219.938ZM39.0681 223.384C38.5942 223.858 37.8515 224.095 36.8401 224.095C35.8583 224.095 35.0564 223.797 34.4343 223.2C33.8038 222.595 33.4885 221.791 33.4885 220.788C33.4885 219.768 33.7996 218.93 34.4216 218.274C35.0818 217.585 35.9641 217.24 37.0686 217.24C37.8515 217.24 38.5074 217.411 39.0364 217.754L38.7825 219.379L38.738 219.373C38.5349 219.127 38.3212 218.966 38.0969 218.89C37.733 218.763 37.3691 218.7 37.0051 218.7C36.6412 218.7 36.3556 218.746 36.1482 218.839C35.9408 218.932 35.7631 219.062 35.615 219.227C35.3188 219.565 35.1707 220.014 35.1707 220.572C35.1707 221.562 35.5134 222.21 36.199 222.515C36.436 222.616 36.6856 222.667 36.948 222.667C37.2146 222.667 37.4452 222.644 37.6399 222.597C37.8388 222.551 38.0186 222.487 38.1795 222.407C38.5222 222.237 38.755 222.041 38.8777 221.816L38.9221 221.835L39.0681 223.384ZM39.9474 220.737C39.9474 220.242 40.032 219.783 40.2013 219.36C40.3706 218.937 40.6097 218.566 40.9186 218.249C41.5788 217.576 42.442 217.24 43.5084 217.24C44.4098 217.24 45.1334 217.538 45.6793 218.135C46.2168 218.71 46.4855 219.434 46.4855 220.306C46.4855 220.64 46.4601 220.868 46.4093 220.991C45.9861 221.11 45.125 221.169 43.8258 221.169H41.5914C41.7015 221.622 41.9575 221.975 42.3595 222.229C42.7615 222.479 43.2842 222.604 43.9274 222.604C44.6002 222.604 45.1779 222.483 45.6603 222.242C45.7872 222.178 45.8825 222.119 45.9459 222.064C45.9375 222.242 45.9269 222.424 45.9142 222.61L45.8444 223.6C45.5228 223.82 45.0023 223.972 44.2829 224.057C44.0713 224.083 43.8681 224.095 43.6735 224.095C42.5986 224.095 41.7099 223.782 41.0075 223.156C40.3008 222.525 39.9474 221.719 39.9474 220.737ZM44.797 219.938C44.6235 219.028 44.1284 218.573 43.3117 218.573C42.6684 218.573 42.1797 218.85 41.8454 219.404C41.7438 219.574 41.6655 219.76 41.6105 219.963C41.7121 219.967 41.8369 219.971 41.985 219.976H42.4547C42.6113 219.98 42.7615 219.982 42.9054 219.982H43.2672C43.483 219.982 43.6946 219.98 43.902 219.976L44.4225 219.957C44.5621 219.952 44.687 219.946 44.797 219.938ZM49.9737 224.095C48.7803 224.095 47.881 223.877 47.2759 223.441C47.2844 223.314 47.2971 223.171 47.314 223.01L47.3711 222.553C47.405 222.252 47.4261 222.066 47.4346 221.994C47.4431 221.918 47.4494 221.878 47.4536 221.874C47.4579 221.865 47.4917 221.899 47.5552 221.975C47.6187 222.047 47.7393 222.136 47.917 222.242C48.0947 222.347 48.3 222.441 48.5327 222.521C49.0363 222.694 49.5611 222.781 50.107 222.781C50.839 222.781 51.2051 222.538 51.2051 222.051C51.2051 221.895 51.1353 221.778 50.9956 221.702C50.746 221.575 50.3778 221.48 49.8911 221.417C49.4087 221.349 49.013 221.251 48.7041 221.125C48.3952 220.998 48.1434 220.845 47.9487 220.667C47.589 220.333 47.4092 219.895 47.4092 219.354C47.4092 218.693 47.6631 218.175 48.1709 217.798C48.6745 217.426 49.3706 217.24 50.2593 217.24C51.1395 217.24 51.8906 217.489 52.5127 217.989C52.4831 218.099 52.4514 218.205 52.4175 218.306C52.3202 218.585 52.2482 218.786 52.2017 218.909L52.0557 219.284C52.0472 219.318 52.0409 219.334 52.0366 219.334C52.0282 219.334 51.9943 219.29 51.9351 219.201C51.6685 218.892 51.2538 218.689 50.6909 218.592C50.5174 218.558 50.3397 218.541 50.1577 218.541C49.3876 218.541 49.0025 218.774 49.0025 219.239C49.0025 219.4 49.0829 219.523 49.2437 219.607C49.5441 219.768 49.9546 219.887 50.4751 219.963C50.9999 220.039 51.3976 220.143 51.6685 220.274C51.9393 220.401 52.1572 220.555 52.3223 220.737C52.627 221.067 52.7793 221.505 52.7793 222.051C52.7793 222.648 52.5402 223.132 52.062 223.505C51.5627 223.898 50.8666 224.095 49.9737 224.095ZM56.3563 224.095C55.163 224.095 54.2637 223.877 53.6586 223.441C53.6671 223.314 53.6798 223.171 53.6967 223.01L53.7538 222.553C53.7877 222.252 53.8088 222.066 53.8173 221.994C53.8257 221.918 53.8321 221.878 53.8363 221.874C53.8406 221.865 53.8744 221.899 53.9379 221.975C54.0014 222.047 54.122 222.136 54.2997 222.242C54.4774 222.347 54.6827 222.441 54.9154 222.521C55.419 222.694 55.9437 222.781 56.4896 222.781C57.2217 222.781 57.5878 222.538 57.5878 222.051C57.5878 221.895 57.518 221.778 57.3783 221.702C57.1286 221.575 56.7605 221.48 56.2738 221.417C55.7914 221.349 55.3957 221.251 55.0868 221.125C54.7779 220.998 54.5261 220.845 54.3314 220.667C53.9717 220.333 53.7919 219.895 53.7919 219.354C53.7919 218.693 54.0458 218.175 54.5536 217.798C55.0572 217.426 55.7533 217.24 56.642 217.24C57.5222 217.24 58.2733 217.489 58.8954 217.989C58.8658 218.099 58.834 218.205 58.8002 218.306C58.7029 218.585 58.6309 218.786 58.5844 218.909L58.4384 219.284C58.4299 219.318 58.4236 219.334 58.4193 219.334C58.4109 219.334 58.377 219.29 58.3178 219.201C58.0512 218.892 57.6365 218.689 57.0736 218.592C56.9001 218.558 56.7224 218.541 56.5404 218.541C55.7702 218.541 55.3852 218.774 55.3852 219.239C55.3852 219.4 55.4656 219.523 55.6264 219.607C55.9268 219.768 56.3373 219.887 56.8578 219.963C57.3826 220.039 57.7803 220.143 58.0512 220.274C58.322 220.401 58.5399 220.555 58.705 220.737C59.0097 221.067 59.162 221.505 59.162 222.051C59.162 222.648 58.9229 223.132 58.4447 223.505C57.9454 223.898 57.2492 224.095 56.3563 224.095ZM64.8846 223.606C64.2836 223.932 63.7399 224.095 63.2532 224.095C62.7666 224.095 62.3497 224.051 62.0027 223.962C61.6557 223.869 61.3616 223.733 61.1204 223.556C60.6295 223.196 60.3841 222.675 60.3841 221.994C60.3841 221.385 60.6845 220.877 61.2854 220.471C61.9371 220.031 62.8216 219.811 63.9388 219.811L64.1927 219.817C64.2434 219.821 64.3006 219.825 64.364 219.83C64.4275 219.83 64.4846 219.834 64.5354 219.842C64.5016 219.165 64.2096 218.77 63.6595 218.655C63.4775 218.617 63.2828 218.598 63.0755 218.598C62.8723 218.598 62.6713 218.617 62.4724 218.655C62.2778 218.689 62.0874 218.736 61.9012 218.795C61.4907 218.926 61.1966 219.076 61.0188 219.246L60.9998 219.233L60.8094 217.83C61.5584 217.437 62.3772 217.24 63.2659 217.24C64.6455 217.24 65.5278 217.737 65.9129 218.731C66.0356 219.049 66.097 219.406 66.097 219.804V222.102C66.097 222.593 66.2705 222.927 66.6175 223.105L65.4685 224.159C65.2273 224.032 65.0327 223.848 64.8846 223.606ZM64.5418 220.985C64.4275 220.964 64.309 220.953 64.1863 220.953H63.9324C62.9972 220.953 62.4026 221.16 62.1487 221.575C62.0725 221.698 62.0345 221.827 62.0345 221.962C62.0345 222.098 62.0577 222.218 62.1043 222.324C62.1551 222.426 62.2376 222.51 62.3518 222.578C62.5719 222.705 62.8977 222.769 63.3294 222.769C63.7652 222.769 64.1715 222.665 64.5481 222.458C64.5439 222.411 64.5418 222.362 64.5418 222.312V220.985ZM69.4518 223.289C69.4518 223.653 69.4603 223.89 69.4772 224H67.8966V217.367H69.4518V217.855C69.8115 217.445 70.1881 217.24 70.5817 217.24C70.9795 217.24 71.2926 217.288 71.5212 217.386L71.4069 219.093L71.3815 219.112C71.2334 218.85 70.9266 218.719 70.4611 218.719C70.2834 218.719 70.1014 218.78 69.9152 218.903C69.7332 219.021 69.5788 219.18 69.4518 219.379V223.289ZM71.5562 226.209L71.9751 225.873C72.6057 225.361 73.1283 224.605 73.543 223.606L73.835 222.902L71.4038 217.367H73.1812L74.7046 221.201L76.1202 217.367H77.9483C77.7282 217.671 77.4595 218.238 77.1421 219.068L76.19 221.423C74.9162 224.419 73.9175 226.205 73.1939 226.78L71.5562 226.209ZM85.68 222.604C86.2259 222.604 86.6004 222.462 86.8035 222.178H86.8543L86.8733 223.651C86.666 223.858 86.2809 223.996 85.7181 224.063C85.5657 224.085 85.3753 224.095 85.1468 224.095C84.9225 224.095 84.6771 224.053 84.4104 223.968C84.1481 223.884 83.9238 223.746 83.7376 223.556C83.3525 223.162 83.16 222.546 83.16 221.708V218.827H82.2015C82.1972 218.704 82.1951 218.579 82.1951 218.452V217.475C82.1951 217.403 82.1972 217.367 82.2015 217.367H83.16V215.558H84.7151V217.367H86.4607V218.827H84.7151V221.417C84.7151 222.081 84.8992 222.46 85.2674 222.553C85.3859 222.587 85.5234 222.604 85.68 222.604ZM87.5558 220.718C87.5558 220.253 87.6341 219.808 87.7907 219.385C87.9515 218.958 88.18 218.585 88.4762 218.268C89.1237 217.583 89.9637 217.24 90.9963 217.24C92.0246 217.24 92.8413 217.563 93.4465 218.211C94.0262 218.829 94.3161 219.631 94.3161 220.617C94.3161 221.603 94.0178 222.419 93.4211 223.067C92.7905 223.752 91.9548 224.095 90.9137 224.095C89.8389 224.095 88.9968 223.759 88.3874 223.086C87.833 222.472 87.5558 221.683 87.5558 220.718ZM89.0983 220.68C89.0983 220.947 89.1428 221.205 89.2316 221.455C89.3205 221.704 89.4474 221.918 89.6125 222.096C89.9637 222.481 90.425 222.673 90.9963 222.673C91.5252 222.673 91.9421 222.485 92.2468 222.108C92.543 221.744 92.6911 221.271 92.6911 220.687C92.6911 220.094 92.5387 219.616 92.2341 219.252C91.9082 218.863 91.4618 218.668 90.8947 218.668C90.3192 218.668 89.8685 218.875 89.5427 219.29C89.2464 219.671 89.0983 220.134 89.0983 220.68ZM95.0303 220.718C95.0303 220.253 95.1086 219.808 95.2652 219.385C95.426 218.958 95.6545 218.585 95.9507 218.268C96.5982 217.583 97.4382 217.24 98.4708 217.24C99.4991 217.24 100.316 217.563 100.921 218.211C101.501 218.829 101.791 219.631 101.791 220.617C101.791 221.603 101.492 222.419 100.896 223.067C100.265 223.752 99.4293 224.095 98.3882 224.095C97.3134 224.095 96.4713 223.759 95.8619 223.086C95.3075 222.472 95.0303 221.683 95.0303 220.718ZM96.5728 220.68C96.5728 220.947 96.6172 221.205 96.7061 221.455C96.795 221.704 96.9219 221.918 97.087 222.096C97.4382 222.481 97.8995 222.673 98.4708 222.673C98.9997 222.673 99.4166 222.485 99.7213 222.108C100.017 221.744 100.166 221.271 100.166 220.687C100.166 220.094 100.013 219.616 99.7086 219.252C99.3827 218.863 98.9363 218.668 98.3692 218.668C97.7937 218.668 97.343 218.875 97.0172 219.29C96.7209 219.671 96.5728 220.134 96.5728 220.68ZM104.46 223.289C104.46 223.653 104.468 223.89 104.485 224H102.873V214.542H104.46V223.289ZM108.354 224.095C107.161 224.095 106.262 223.877 105.657 223.441C105.665 223.314 105.678 223.171 105.695 223.01L105.752 222.553C105.786 222.252 105.807 222.066 105.815 221.994C105.824 221.918 105.83 221.878 105.834 221.874C105.839 221.865 105.872 221.899 105.936 221.975C105.999 222.047 106.12 222.136 106.298 222.242C106.475 222.347 106.681 222.441 106.913 222.521C107.417 222.694 107.942 222.781 108.488 222.781C109.22 222.781 109.586 222.538 109.586 222.051C109.586 221.895 109.516 221.778 109.376 221.702C109.127 221.575 108.758 221.48 108.272 221.417C107.789 221.349 107.394 221.251 107.085 221.125C106.776 220.998 106.524 220.845 106.329 220.667C105.97 220.333 105.79 219.895 105.79 219.354C105.79 218.693 106.044 218.175 106.552 217.798C107.055 217.426 107.751 217.24 108.64 217.24C109.52 217.24 110.271 217.489 110.893 217.989C110.864 218.099 110.832 218.205 110.798 218.306C110.701 218.585 110.629 218.786 110.582 218.909L110.436 219.284C110.428 219.318 110.422 219.334 110.417 219.334C110.409 219.334 110.375 219.29 110.316 219.201C110.049 218.892 109.634 218.689 109.072 218.592C108.898 218.558 108.72 218.541 108.538 218.541C107.768 218.541 107.383 218.774 107.383 219.239C107.383 219.4 107.464 219.523 107.624 219.607C107.925 219.768 108.335 219.887 108.856 219.963C109.381 220.039 109.778 220.143 110.049 220.274C110.32 220.401 110.538 220.555 110.703 220.737C111.008 221.067 111.16 221.505 111.16 222.051C111.16 222.648 110.921 223.132 110.443 223.505C109.943 223.898 109.247 224.095 108.354 224.095ZM112.484 224.736C112.543 224.275 112.572 223.89 112.572 223.581C112.572 223.268 112.549 222.942 112.503 222.604L114.083 222.35L114.134 222.673C114.168 222.91 114.185 223.156 114.185 223.41C114.185 223.659 114.172 223.89 114.147 224.102C114.121 224.317 114.087 224.516 114.045 224.698C113.948 225.096 113.838 225.333 113.715 225.409C113.508 225.54 113.01 225.688 112.223 225.854L112.185 225.815C112.329 225.562 112.429 225.202 112.484 224.736ZM119.593 215.475C119.932 214.946 120.285 214.481 120.653 214.079L122.018 215.151C121.836 215.376 121.667 215.596 121.51 215.812C121.51 215.812 121.347 216.042 121.021 216.503L119.593 215.475ZM121.263 223.289C121.263 223.653 121.271 223.89 121.288 224H119.676V217.367H121.263V223.289ZM124.598 223.188C124.598 223.56 124.615 223.831 124.649 224H123.056V217.367H124.598V217.932C125.157 217.47 125.754 217.24 126.389 217.24C127.083 217.24 127.637 217.477 128.052 217.951C128.466 218.42 128.674 219.04 128.674 219.811V222.337C128.674 223.052 128.684 223.482 128.705 223.625C128.727 223.769 128.754 223.862 128.788 223.905C128.826 223.947 128.858 223.985 128.883 224.019L128.87 224.044C128.528 224.015 128.278 224 128.121 224H127.677C127.542 224 127.36 224.006 127.131 224.019V220.56C127.131 219.32 126.755 218.7 126.001 218.7C125.443 218.7 124.975 218.987 124.598 219.563V223.188ZM135.59 223.384C135.116 223.858 134.373 224.095 133.362 224.095C132.38 224.095 131.578 223.797 130.956 223.2C130.325 222.595 130.01 221.791 130.01 220.788C130.01 219.768 130.321 218.93 130.943 218.274C131.603 217.585 132.486 217.24 133.59 217.24C134.373 217.24 135.029 217.411 135.558 217.754L135.304 219.379L135.259 219.373C135.056 219.127 134.843 218.966 134.618 218.89C134.254 218.763 133.891 218.7 133.527 218.7C133.163 218.7 132.877 218.746 132.67 218.839C132.462 218.932 132.285 219.062 132.136 219.227C131.84 219.565 131.692 220.014 131.692 220.572C131.692 221.562 132.035 222.21 132.72 222.515C132.957 222.616 133.207 222.667 133.469 222.667C133.736 222.667 133.967 222.644 134.161 222.597C134.36 222.551 134.54 222.487 134.701 222.407C135.044 222.237 135.276 222.041 135.399 221.816L135.444 221.835L135.59 223.384ZM138.259 223.289C138.259 223.653 138.267 223.89 138.284 224H136.672V214.542H138.259V223.289ZM143.893 223.422C143.351 223.871 142.761 224.095 142.122 224.095C141.436 224.095 140.899 223.865 140.509 223.403C140.137 222.955 139.951 222.339 139.951 221.556V219.036C139.951 218.19 139.932 217.705 139.894 217.583C139.86 217.456 139.834 217.375 139.817 217.341C140.012 217.358 140.215 217.367 140.427 217.367H140.954C141.093 217.367 141.277 217.36 141.506 217.348V221.023C141.506 221.895 141.743 222.4 142.217 222.54C142.361 222.582 142.517 222.604 142.687 222.604C143.186 222.604 143.588 222.422 143.893 222.058V217.367H145.467V223.188C145.467 223.56 145.484 223.831 145.518 224H143.893V223.422ZM151.919 223.645C151.382 223.945 150.844 224.095 150.307 224.095C149.77 224.095 149.3 224.011 148.898 223.841C148.496 223.672 148.153 223.439 147.869 223.143C147.286 222.534 146.994 221.742 146.994 220.769C146.994 219.762 147.332 218.924 148.009 218.255C148.69 217.578 149.562 217.24 150.624 217.24C150.95 217.24 151.27 217.282 151.583 217.367V214.542H153.138V221.328C153.138 221.89 153.163 222.259 153.214 222.432C153.269 222.606 153.328 222.733 153.392 222.813C153.46 222.893 153.544 222.97 153.646 223.042L152.452 224.095C152.232 223.977 152.055 223.826 151.919 223.645ZM150.605 222.635C150.961 222.635 151.287 222.568 151.583 222.432V218.916C151.287 218.793 150.965 218.731 150.618 218.731C150.271 218.731 149.973 218.778 149.723 218.871C149.478 218.964 149.266 219.093 149.088 219.258C148.716 219.605 148.53 220.056 148.53 220.61C148.53 221.215 148.699 221.698 149.037 222.058C149.401 222.443 149.924 222.635 150.605 222.635ZM154.639 215.475C154.978 214.946 155.331 214.481 155.699 214.079L157.064 215.151C156.882 215.376 156.713 215.596 156.556 215.812C156.556 215.812 156.393 216.042 156.068 216.503L154.639 215.475ZM156.309 223.289C156.309 223.653 156.317 223.89 156.334 224H154.722V217.367H156.309V223.289ZM159.645 223.188C159.645 223.56 159.662 223.831 159.695 224H158.102V217.367H159.645V217.932C160.203 217.47 160.8 217.24 161.435 217.24C162.129 217.24 162.683 217.477 163.098 217.951C163.512 218.42 163.72 219.04 163.72 219.811V222.337C163.72 223.052 163.73 223.482 163.752 223.625C163.773 223.769 163.8 223.862 163.834 223.905C163.872 223.947 163.904 223.985 163.929 224.019L163.917 224.044C163.574 224.015 163.324 224 163.168 224H162.723C162.588 224 162.406 224.006 162.177 224.019V220.56C162.177 219.32 161.801 218.7 161.047 218.7C160.489 218.7 160.021 218.987 159.645 219.563V223.188ZM167.195 222.235C167.039 222.443 166.96 222.608 166.96 222.73C166.96 222.849 166.979 222.942 167.018 223.01C167.056 223.073 167.138 223.135 167.265 223.194C167.544 223.325 168.004 223.441 168.643 223.543C169.282 223.64 169.781 223.763 170.141 223.911C170.505 224.059 170.799 224.241 171.023 224.457C171.442 224.868 171.651 225.449 171.651 226.203C171.651 226.956 171.387 227.534 170.858 227.936C170.329 228.342 169.544 228.545 168.503 228.545C167.453 228.545 166.607 228.316 165.964 227.859C165.321 227.402 164.991 226.795 164.974 226.038C164.948 225.157 165.293 224.521 166.008 224.127C165.814 223.966 165.682 223.778 165.615 223.562C165.551 223.342 165.52 223.092 165.52 222.813C165.52 222.343 165.725 221.945 166.135 221.62C165.657 221.167 165.418 220.604 165.418 219.931C165.418 219.178 165.689 218.547 166.23 218.04C166.802 217.506 167.542 217.24 168.452 217.24C168.93 217.24 169.379 217.329 169.798 217.506C170.348 217.274 170.752 217.07 171.01 216.897C171.268 216.719 171.433 216.59 171.505 216.51L171.543 216.516C171.582 216.618 171.626 216.762 171.677 216.948L171.791 217.405C171.893 217.781 171.954 218.04 171.975 218.179C171.789 218.382 171.461 218.526 170.991 218.611C171.173 218.962 171.264 219.334 171.264 219.728C171.264 220.122 171.196 220.479 171.061 220.801C170.926 221.118 170.733 221.397 170.483 221.639C169.929 222.159 169.222 222.419 168.363 222.419C167.944 222.419 167.555 222.358 167.195 222.235ZM167.03 219.379C166.971 219.531 166.941 219.686 166.941 219.842C166.941 219.999 166.973 220.149 167.037 220.293C167.104 220.437 167.202 220.566 167.329 220.68C167.612 220.934 167.982 221.061 168.439 221.061C168.786 221.061 169.087 220.945 169.341 220.712C169.607 220.458 169.741 220.153 169.741 219.798C169.741 219.438 169.62 219.148 169.379 218.928C169.138 218.708 168.806 218.598 168.382 218.598C167.684 218.598 167.233 218.858 167.03 219.379ZM168.585 227.199C169.626 227.199 170.147 226.835 170.147 226.107C170.147 225.76 169.978 225.481 169.639 225.27C169.258 225.028 168.604 224.84 167.678 224.705L167.348 224.647C167.068 224.796 166.863 224.986 166.732 225.219C166.601 225.451 166.535 225.672 166.535 225.879C166.539 226.09 166.59 226.272 166.688 226.425C166.785 226.577 166.92 226.71 167.094 226.825C167.479 227.074 167.976 227.199 168.585 227.199ZM182.271 223.384C181.797 223.858 181.055 224.095 180.043 224.095C179.061 224.095 178.26 223.797 177.637 223.2C177.007 222.595 176.692 221.791 176.692 220.788C176.692 219.768 177.003 218.93 177.625 218.274C178.285 217.585 179.167 217.24 180.272 217.24C181.055 217.24 181.711 217.411 182.24 217.754L181.986 219.379L181.941 219.373C181.738 219.127 181.524 218.966 181.3 218.89C180.936 218.763 180.572 218.7 180.208 218.7C179.844 218.7 179.559 218.746 179.351 218.839C179.144 218.932 178.966 219.062 178.818 219.227C178.522 219.565 178.374 220.014 178.374 220.572C178.374 221.562 178.717 222.21 179.402 222.515C179.639 222.616 179.889 222.667 180.151 222.667C180.418 222.667 180.648 222.644 180.843 222.597C181.042 222.551 181.222 222.487 181.383 222.407C181.725 222.237 181.958 222.041 182.081 221.816L182.125 221.835L182.271 223.384ZM182.985 220.718C182.985 220.253 183.064 219.808 183.22 219.385C183.381 218.958 183.61 218.585 183.906 218.268C184.553 217.583 185.393 217.24 186.426 217.24C187.454 217.24 188.271 217.563 188.876 218.211C189.456 218.829 189.746 219.631 189.746 220.617C189.746 221.603 189.447 222.419 188.851 223.067C188.22 223.752 187.384 224.095 186.343 224.095C185.269 224.095 184.426 223.759 183.817 223.086C183.263 222.472 182.985 221.683 182.985 220.718ZM184.528 220.68C184.528 220.947 184.572 221.205 184.661 221.455C184.75 221.704 184.877 221.918 185.042 222.096C185.393 222.481 185.855 222.673 186.426 222.673C186.955 222.673 187.372 222.485 187.676 222.108C187.973 221.744 188.121 221.271 188.121 220.687C188.121 220.094 187.968 219.616 187.664 219.252C187.338 218.863 186.891 218.668 186.324 218.668C185.749 218.668 185.298 218.875 184.972 219.29C184.676 219.671 184.528 220.134 184.528 220.68ZM192.44 223.289C192.44 223.653 192.449 223.89 192.466 224H190.885V217.367H192.44V217.855C192.8 217.445 193.177 217.24 193.57 217.24C193.968 217.24 194.281 217.288 194.51 217.386L194.396 219.093L194.37 219.112C194.222 218.85 193.915 218.719 193.45 218.719C193.272 218.719 193.09 218.78 192.904 218.903C192.722 219.021 192.567 219.18 192.44 219.379V223.289ZM196.652 223.289C196.652 223.653 196.661 223.89 196.678 224H195.097V217.367H196.652V217.855C197.012 217.445 197.389 217.24 197.782 217.24C198.18 217.24 198.493 217.288 198.722 217.386L198.607 219.093L198.582 219.112C198.434 218.85 198.127 218.719 197.662 218.719C197.484 218.719 197.302 218.78 197.116 218.903C196.934 219.021 196.779 219.18 196.652 219.379V223.289ZM199.049 220.737C199.049 220.242 199.133 219.783 199.303 219.36C199.472 218.937 199.711 218.566 200.02 218.249C200.68 217.576 201.543 217.24 202.61 217.24C203.511 217.24 204.235 217.538 204.781 218.135C205.318 218.71 205.587 219.434 205.587 220.306C205.587 220.64 205.561 220.868 205.511 220.991C205.087 221.11 204.226 221.169 202.927 221.169H200.693C200.803 221.622 201.059 221.975 201.461 222.229C201.863 222.479 202.385 222.604 203.029 222.604C203.701 222.604 204.279 222.483 204.762 222.242C204.888 222.178 204.984 222.119 205.047 222.064C205.039 222.242 205.028 222.424 205.015 222.61L204.946 223.6C204.624 223.82 204.103 223.972 203.384 224.057C203.172 224.083 202.969 224.095 202.775 224.095C201.7 224.095 200.811 223.782 200.109 223.156C199.402 222.525 199.049 221.719 199.049 220.737ZM203.898 219.938C203.725 219.028 203.23 218.573 202.413 218.573C201.77 218.573 201.281 218.85 200.947 219.404C200.845 219.574 200.767 219.76 200.712 219.963C200.813 219.967 200.938 219.971 201.086 219.976H201.556C201.713 219.98 201.863 219.982 202.007 219.982H202.368C202.584 219.982 202.796 219.98 203.003 219.976L203.524 219.957C203.663 219.952 203.788 219.946 203.898 219.938ZM212.027 223.384C211.553 223.858 210.81 224.095 209.798 224.095C208.817 224.095 208.015 223.797 207.393 223.2C206.762 222.595 206.447 221.791 206.447 220.788C206.447 219.768 206.758 218.93 207.38 218.274C208.04 217.585 208.923 217.24 210.027 217.24C210.81 217.24 211.466 217.411 211.995 217.754L211.741 219.379L211.696 219.373C211.493 219.127 211.28 218.966 211.055 218.89C210.691 218.763 210.327 218.7 209.964 218.7C209.6 218.7 209.314 218.746 209.107 218.839C208.899 218.932 208.722 219.062 208.573 219.227C208.277 219.565 208.129 220.014 208.129 220.572C208.129 221.562 208.472 222.21 209.157 222.515C209.394 222.616 209.644 222.667 209.906 222.667C210.173 222.667 210.404 222.644 210.598 222.597C210.797 222.551 210.977 222.487 211.138 222.407C211.481 222.237 211.713 222.041 211.836 221.816L211.881 221.835L212.027 223.384ZM216.169 222.604C216.714 222.604 217.089 222.462 217.292 222.178H217.343L217.362 223.651C217.155 223.858 216.769 223.996 216.207 224.063C216.054 224.085 215.864 224.095 215.635 224.095C215.411 224.095 215.166 224.053 214.899 223.968C214.637 223.884 214.412 223.746 214.226 223.556C213.841 223.162 213.648 222.546 213.648 221.708V218.827H212.69C212.686 218.704 212.684 218.579 212.684 218.452V217.475C212.684 217.403 212.686 217.367 212.69 217.367H213.648V215.558H215.204V217.367H216.949V218.827H215.204V221.417C215.204 222.081 215.388 222.46 215.756 222.553C215.874 222.587 216.012 222.604 216.169 222.604ZM218.324 215.475C218.662 214.946 219.016 214.481 219.384 214.079L220.748 215.151C220.566 215.376 220.397 215.596 220.241 215.812C220.241 215.812 220.078 216.042 219.752 216.503L218.324 215.475ZM219.993 223.289C219.993 223.653 220.002 223.89 220.018 224H218.406V217.367H219.993V223.289ZM221.177 220.718C221.177 220.253 221.255 219.808 221.412 219.385C221.573 218.958 221.801 218.585 222.097 218.268C222.745 217.583 223.585 217.24 224.617 217.24C225.646 217.24 226.463 217.563 227.068 218.211C227.647 218.829 227.937 219.631 227.937 220.617C227.937 221.603 227.639 222.419 227.042 223.067C226.412 223.752 225.576 224.095 224.535 224.095C223.46 224.095 222.618 223.759 222.009 223.086C221.454 222.472 221.177 221.683 221.177 220.718ZM222.72 220.68C222.72 220.947 222.764 221.205 222.853 221.455C222.942 221.704 223.069 221.918 223.234 222.096C223.585 222.481 224.046 222.673 224.617 222.673C225.146 222.673 225.563 222.485 225.868 222.108C226.164 221.744 226.312 221.271 226.312 220.687C226.312 220.094 226.16 219.616 225.855 219.252C225.529 218.863 225.083 218.668 224.516 218.668C223.94 218.668 223.49 218.875 223.164 219.29C222.868 219.671 222.72 220.134 222.72 220.68ZM230.803 223.188C230.803 223.56 230.82 223.831 230.854 224H229.261V217.367H230.803V217.932C231.362 217.47 231.959 217.24 232.593 217.24C233.287 217.24 233.842 217.477 234.257 217.951C234.671 218.42 234.879 219.04 234.879 219.811V222.337C234.879 223.052 234.889 223.482 234.91 223.625C234.931 223.769 234.959 223.862 234.993 223.905C235.031 223.947 235.063 223.985 235.088 224.019L235.075 224.044C234.733 224.015 234.483 224 234.326 224H233.882C233.747 224 233.565 224.006 233.336 224.019V220.56C233.336 219.32 232.959 218.7 232.206 218.7C231.648 218.7 231.18 218.987 230.803 219.563V223.188ZM238.843 224.095C237.649 224.095 236.75 223.877 236.145 223.441C236.154 223.314 236.166 223.171 236.183 223.01L236.24 222.553C236.274 222.252 236.295 222.066 236.304 221.994C236.312 221.918 236.319 221.878 236.323 221.874C236.327 221.865 236.361 221.899 236.424 221.975C236.488 222.047 236.608 222.136 236.786 222.242C236.964 222.347 237.169 222.441 237.402 222.521C237.905 222.694 238.43 222.781 238.976 222.781C239.708 222.781 240.074 222.538 240.074 222.051C240.074 221.895 240.004 221.778 239.865 221.702C239.615 221.575 239.247 221.48 238.76 221.417C238.278 221.349 237.882 221.251 237.573 221.125C237.264 220.998 237.013 220.845 236.818 220.667C236.458 220.333 236.278 219.895 236.278 219.354C236.278 218.693 236.532 218.175 237.04 217.798C237.544 217.426 238.24 217.24 239.128 217.24C240.009 217.24 240.76 217.489 241.382 217.989C241.352 218.099 241.321 218.205 241.287 218.306C241.189 218.585 241.117 218.786 241.071 218.909L240.925 219.284C240.916 219.318 240.91 219.334 240.906 219.334C240.897 219.334 240.864 219.29 240.804 219.201C240.538 218.892 240.123 218.689 239.56 218.592C239.387 218.558 239.209 218.541 239.027 218.541C238.257 218.541 237.872 218.774 237.872 219.239C237.872 219.4 237.952 219.523 238.113 219.607C238.413 219.768 238.824 219.887 239.344 219.963C239.869 220.039 240.267 220.143 240.538 220.274C240.808 220.401 241.026 220.555 241.191 220.737C241.496 221.067 241.648 221.505 241.648 222.051C241.648 222.648 241.409 223.132 240.931 223.505C240.432 223.898 239.736 224.095 238.843 224.095ZM242.75 224C242.788 223.742 242.807 223.513 242.807 223.314C242.807 223.116 242.805 222.98 242.801 222.908C242.801 222.832 242.799 222.758 242.794 222.686C242.79 222.614 242.786 222.546 242.782 222.483L242.763 222.324H244.603C244.591 222.485 244.584 222.616 244.584 222.718L244.572 222.984C244.572 223.065 244.572 223.217 244.572 223.441C244.572 223.661 244.582 223.848 244.603 224H242.75Z" fill="#FF8A00"/>
<path d="M20.3242 24.6679L29.1475 32.9052C29.5137 33.247 29.9971 33.4375 30.5 33.4375C31.0029 33.4375 31.4863 33.247 31.8525 32.9052L40.6758 24.6679C42.1602 23.2861 43 21.3476 43 19.3212V19.038C43 15.625 40.5342 12.7148 37.1699 12.1533C34.9434 11.7822 32.6777 12.5097 31.0859 14.1015L30.5 14.6875L29.9141 14.1015C28.3223 12.5097 26.0566 11.7822 23.8301 12.1533C20.4658 12.7148 18 15.625 18 19.038V19.3212C18 21.3476 18.8398 23.2861 20.3242 24.6679Z" fill="#363636" fill-opacity="0.47"/>
<path d="M28.2305 35.4338L28.084 35.299L17.8184 25.7658C16.0195 24.0959 15 21.7521 15 19.2971V19.1037C15 14.9787 17.9297 11.4396 21.9844 10.6662C24.293 10.2209 26.6543 10.7541 28.5352 12.0783C29.0625 12.4533 29.5547 12.8869 30 13.385C30.2461 13.1037 30.5098 12.8459 30.791 12.6057C31.0078 12.4182 31.2305 12.2424 31.4648 12.0783C33.3457 10.7541 35.707 10.2209 38.0156 10.6604C42.0703 11.4338 45 14.9787 45 19.1037V19.2971C45 21.7521 43.9805 24.0959 42.1816 25.7658L31.916 35.299L31.7695 35.4338C31.2891 35.8791 30.6562 36.1311 30 36.1311C29.3438 36.1311 28.7109 35.885 28.2305 35.4338ZM29.0098 16.4963C28.9863 16.4787 28.9688 16.4553 28.9512 16.4318L27.9082 15.26L27.9023 15.2541C26.5488 13.7365 24.5039 13.0451 22.5117 13.426C19.7812 13.9475 17.8125 16.3264 17.8125 19.1037V19.2971C17.8125 20.967 18.5098 22.5666 19.7344 23.7033L30 33.2365L40.2656 23.7033C41.4902 22.5666 42.1875 20.967 42.1875 19.2971V19.1037C42.1875 16.3322 40.2188 13.9475 37.4941 13.426C35.502 13.0451 33.4512 13.7424 32.1035 15.2541C32.1035 15.2541 32.1035 15.2541 32.0977 15.26C32.0918 15.2658 32.0977 15.26 32.0918 15.2658L31.0488 16.4377C31.0312 16.4611 31.0078 16.4787 30.9902 16.5021C30.7266 16.7658 30.3691 16.9123 30 16.9123C29.6309 16.9123 29.2734 16.7658 29.0098 16.5021V16.4963Z" fill="white" fill-opacity="0.7"/>
</g>
<rect x="0.5" y="0.5" width="267" height="280" rx="14.5" stroke="#FF8A00" stroke-opacity="0.75"/>
<defs>
<linearGradient id="paint0_linear_88_137" x1="230" y1="16.5" x2="205.5" y2="28.5" gradientUnits="userSpaceOnUse">
<stop stop-color="#FF8A00"/>
<stop offset="1" stop-color="#F55800"/>
</linearGradient>
<linearGradient id="paint1_linear_88_137" x1="246.5" y1="16.999" x2="246.5" y2="27.9996" gradientUnits="userSpaceOnUse">
<stop stop-color="#F65901"/>
<stop offset="1" stop-color="#FF8A00"/>
</linearGradient>
<clipPath id="clip0_88_137">
<rect width="268" height="281" rx="15" fill="white"/>
</clipPath>
<clipPath id="clip1_88_137">
<rect width="21.7155" height="16.7042" fill="white" transform="translate(144.847 247.285)"/>
</clipPath>
<clipPath id="clip2_88_137">
<rect width="9" height="11" fill="white" transform="matrix(-1 0 0 1 251 17)"/>
</clipPath>
</defs>
</svg>
