<svg width="69" height="69" viewBox="0 0 69 69" fill="none" xmlns="http://www.w3.org/2000/svg">
<g id="check-double-solid 1">
<path id="Vector" d="M50.4831 11.6708C52.1676 9.98623 52.1676 7.25049 50.4831 5.56592C48.7985 3.88135 46.0627 3.88135 44.3782 5.56592L25.8749 24.0827L18.1393 16.3472C16.4547 14.6626 13.719 14.6626 12.0344 16.3472C10.3499 18.0317 10.3499 20.7675 12.0344 22.4521L22.8157 33.2333C24.5002 34.9179 27.236 34.9179 28.9206 33.2333L50.4831 11.6708ZM63.4206 28.9208C65.1051 27.2362 65.1051 24.5005 63.4206 22.8159C61.736 21.1313 59.0002 21.1313 57.3157 22.8159L25.8749 54.2702L11.6706 40.0794C9.98599 38.3948 7.25024 38.3948 5.56567 40.0794C3.8811 41.764 3.8811 44.4997 5.56567 46.1843L22.8157 63.4343C24.5002 65.1189 27.236 65.1189 28.9206 63.4343L63.4206 28.9343V28.9208Z" fill="#FF8A00"/>
</g>
</svg>
