<svg width="9" height="11" viewBox="0 0 9 11" fill="none" xmlns="http://www.w3.org/2000/svg">
<g id="fire-solid 1" clip-path="url(#clip0_332_37)">
<path id="Vector" d="M5.79978 0.115704C5.64308 -0.0411322 5.4 -0.0389837 5.2433 0.117852C4.68884 0.674298 4.16853 1.27371 3.68237 1.92254C3.46138 1.61316 3.21027 1.27586 2.93906 1.00086C2.78036 0.841876 2.53527 0.841876 2.37656 1.00301C1.68147 1.71199 1.09286 2.64871 0.679018 3.53816C0.271205 4.41473 0 5.31063 0 5.94227C0 8.68367 2.00491 10.9997 4.5 10.9997C7.02321 10.9997 9 8.68152 9 5.94012C9 5.11512 8.64241 4.1075 8.08795 3.11063C7.52746 2.09871 6.73594 1.04383 5.79978 0.115704ZM4.46585 8.93719C3.95759 8.93719 3.50759 8.7868 3.08371 8.48602C2.23795 7.85438 2.01094 6.59109 2.5192 5.59852C2.6096 5.40516 2.84062 5.39227 2.97121 5.55555L3.47746 6.18504C3.61004 6.34832 3.84911 6.34402 3.97366 6.1743C4.30513 5.72313 4.89777 4.91746 5.23527 4.45984C5.36183 4.28797 5.6029 4.28582 5.73147 4.4577C6.41049 5.37078 6.75201 5.94656 6.75201 6.59324C6.75 8.06492 5.73348 8.93719 4.46585 8.93719Z" fill="url(#paint0_linear_332_37)"/>
</g>
<defs>
<linearGradient id="paint0_linear_332_37" x1="4.5" y1="-0.000854492" x2="4.5" y2="10.9997" gradientUnits="userSpaceOnUse">
<stop stop-color="#F65901"/>
<stop offset="1" stop-color="#FF8A00"/>
</linearGradient>
<clipPath id="clip0_332_37">
<rect width="9" height="11" fill="white" transform="matrix(-1 0 0 1 9 0)"/>
</clipPath>
</defs>
</svg>
