<svg width="71" height="57" viewBox="0 0 71 57" fill="none" xmlns="http://www.w3.org/2000/svg">
<g id="money-bills-solid 1">
<path id="Vector" d="M10.65 10.6875V35.625C10.65 39.5549 13.8339 42.75 17.75 42.75H63.9C67.8161 42.75 71 39.5549 71 35.625V10.6875C71 6.75762 67.8161 3.5625 63.9 3.5625H17.75C13.8339 3.5625 10.65 6.75762 10.65 10.6875ZM17.75 28.5C21.6661 28.5 24.85 31.6951 24.85 35.625H17.75V28.5ZM24.85 10.6875C24.85 14.6174 21.6661 17.8125 17.75 17.8125V10.6875H24.85ZM63.9 28.5V35.625H56.8C56.8 31.6951 59.9839 28.5 63.9 28.5ZM56.8 10.6875H63.9V17.8125C59.9839 17.8125 56.8 14.6174 56.8 10.6875ZM31.95 23.1562C31.95 20.7942 32.885 18.5288 34.5494 16.8586C36.2138 15.1883 38.4712 14.25 40.825 14.25C43.1788 14.25 45.4362 15.1883 47.1006 16.8586C48.765 18.5288 49.7 20.7942 49.7 23.1562C49.7 25.5183 48.765 27.7837 47.1006 29.4539C45.4362 31.1242 43.1788 32.0625 40.825 32.0625C38.4712 32.0625 36.2138 31.1242 34.5494 29.4539C32.885 27.7837 31.95 25.5183 31.95 23.1562ZM5.325 13.3594C5.325 11.8787 4.13797 10.6875 2.6625 10.6875C1.18703 10.6875 0 11.8787 0 13.3594V40.0781C0 47.4592 5.95734 53.4375 13.3125 53.4375H57.6875C59.163 53.4375 60.35 52.2463 60.35 50.7656C60.35 49.285 59.163 48.0938 57.6875 48.0938H13.3125C8.89719 48.0938 5.325 44.509 5.325 40.0781V13.3594Z" fill="#FF8A00"/>
</g>
</svg>
