<svg width="107" height="107" viewBox="0 0 107 107" fill="none" xmlns="http://www.w3.org/2000/svg">
<g id="repeat-solid 1" clip-path="url(#clip0_75_27)">
<path id="Vector" d="M46.8127 107C50.5118 107 53.5002 104.012 53.5002 100.312C53.5002 96.6135 50.5118 93.625 46.8127 93.625C35.7366 93.625 26.7502 84.6387 26.7502 73.5625V40.125H33.4377C36.1336 40.125 38.5788 38.4949 39.6237 35.9871C40.6686 33.4793 40.0834 30.6162 38.1817 28.6936L24.8067 15.3186C22.1944 12.7062 17.952 12.7062 15.3397 15.3186L1.96469 28.6936C0.0420355 30.6162 -0.522222 33.4793 0.5227 35.9871C1.56762 38.4949 3.99184 40.125 6.68774 40.125H13.3752L13.3752 73.5625C13.3752 92.0367 28.3385 107 46.8127 107ZM60.1877 0C56.4887 0 53.5002 2.98848 53.5002 6.6875C53.5002 10.3865 56.4887 13.375 60.1877 13.375C71.2639 13.375 80.2502 22.3613 80.2502 33.4375V66.875H73.5627C70.8668 66.875 68.4217 68.5051 67.3768 71.0129C66.3319 73.5207 66.917 76.3838 68.8188 78.3064L82.1938 91.6814C84.8061 94.2937 89.0485 94.2937 91.6608 91.6814L105.036 78.3064C106.958 76.3838 107.523 73.5207 106.478 71.0129C105.433 68.5051 103.009 66.875 100.292 66.875H93.6252V33.4375C93.6252 14.9633 78.662 0 60.1877 0Z" fill="url(#paint0_linear_75_27)"/>
</g>
<defs>
<linearGradient id="paint0_linear_75_27" x1="0.00488281" y1="53.5" x2="106.996" y2="53.5" gradientUnits="userSpaceOnUse">
<stop stop-color="#FF8A00"/>
<stop offset="1" stop-color="#FF3D00"/>
</linearGradient>
<clipPath id="clip0_75_27">
<rect width="107" height="107" fill="white" transform="matrix(0 -1 1 0 0 107)"/>
</clipPath>
</defs>
</svg>
