<svg width="50" height="26" viewBox="0 0 50 26" fill="none" xmlns="http://www.w3.org/2000/svg">
<rect width="50" height="26" rx="13" fill="#232323"/>
<g clip-path="url(#clip0_1066_36)">
<path d="M34.8596 12.334C35.4137 12.7892 35.4137 13.5284 34.8596 13.9836L27.7675 19.81C27.2135 20.2652 26.3136 20.2652 25.7596 19.81C25.2055 19.3548 25.2055 18.6156 25.7596 18.1604L31.8499 13.157L25.764 8.15361C25.2099 7.69843 25.2099 6.95921 25.764 6.50402C26.3181 6.04884 27.2179 6.04884 27.772 6.50402L34.8641 12.3304L34.8596 12.334ZM19.257 6.50766L26.3491 12.334C26.9032 12.7892 26.9032 13.5284 26.3491 13.9836L19.257 19.81C18.7029 20.2652 17.8031 20.2652 17.249 19.81C16.695 19.3548 16.695 18.6156 17.249 18.1604L23.3394 13.157L17.2535 8.15361C16.6994 7.69843 16.6994 6.95921 17.2535 6.50402C17.8076 6.04884 18.7074 6.04884 19.2614 6.50402L19.257 6.50766Z" fill="#FF8A00"/>
</g>
<defs>
<clipPath id="clip0_1066_36">
<rect width="16.3138" height="22.6947" fill="white" transform="matrix(0 -1 1 0 14 21.3135)"/>
</clipPath>
</defs>
</svg>
