<svg width="83" height="83" viewBox="0 0 83 83" fill="none" xmlns="http://www.w3.org/2000/svg">
<g id="envelope-open-regular 1" clip-path="url(#clip0_239_108)">
<path id="Vector" d="M41.4027 7.81367C41.4352 7.79746 41.4676 7.78125 41.5 7.78125C41.5324 7.78125 41.5648 7.79746 41.5973 7.81367L74.6676 31.4492C75.008 31.6924 75.2188 32.0814 75.2188 32.5029V34.7076L47.2549 57.6623C43.8992 60.4182 39.0846 60.4182 35.7289 57.6623L7.78125 34.7076V32.5029C7.78125 32.0814 7.97578 31.6924 8.33242 31.4492L41.4027 7.81367ZM7.78125 44.7746L30.8008 63.6766C37.0258 68.783 45.9904 68.783 52.1992 63.6766L75.2188 44.7746V73.9219C75.2188 74.6352 74.6352 75.2188 73.9219 75.2188H9.07812C8.36484 75.2188 7.78125 74.6352 7.78125 73.9219V44.7746ZM41.5 0C39.8465 0 38.2254 0.51875 36.8799 1.4752L3.80957 25.1107C1.41035 26.8129 0 29.5688 0 32.5029V73.9219C0 78.9311 4.06895 83 9.07812 83H73.9219C78.9311 83 83 78.9311 83 73.9219V32.5029C83 29.5688 81.5897 26.8129 79.2066 25.1107L46.1201 1.4752C44.7746 0.51875 43.1535 0 41.5 0Z" fill="#FF8A00"/>
</g>
<defs>
<clipPath id="clip0_239_108">
<rect width="83" height="83" fill="white"/>
</clipPath>
</defs>
</svg>
