<svg width="64" height="64" viewBox="0 0 64 64" fill="none" xmlns="http://www.w3.org/2000/svg">
<g id="circle-question-regular 1" clip-path="url(#clip0_239_130)">
<path id="Vector" d="M58 32C58 25.1044 55.2607 18.4912 50.3848 13.6152C45.5088 8.73928 38.8956 6 32 6C25.1044 6 18.4912 8.73928 13.6152 13.6152C8.73928 18.4912 6 25.1044 6 32C6 38.8956 8.73928 45.5088 13.6152 50.3848C18.4912 55.2607 25.1044 58 32 58C38.8956 58 45.5088 55.2607 50.3848 50.3848C55.2607 45.5088 58 38.8956 58 32ZM0 32C0 23.5131 3.37142 15.3737 9.37258 9.37258C15.3737 3.37142 23.5131 0 32 0C40.4869 0 48.6263 3.37142 54.6274 9.37258C60.6286 15.3737 64 23.5131 64 32C64 40.4869 60.6286 48.6263 54.6274 54.6274C48.6263 60.6286 40.4869 64 32 64C23.5131 64 15.3737 60.6286 9.37258 54.6274C3.37142 48.6263 0 40.4869 0 32ZM21.225 20.6625C22.2125 17.875 24.8625 16 27.825 16H35.1125C39.475 16 43 19.5375 43 23.8875C43 26.7125 41.4875 29.325 39.0375 30.7375L35 33.05C34.975 34.675 33.6375 36 32 36C30.3375 36 29 34.6625 29 33V31.3125C29 30.2375 29.575 29.25 30.5125 28.7125L36.05 25.5375C36.6375 25.2 37 24.575 37 23.9C37 22.85 36.15 22.0125 35.1125 22.0125H27.825C27.4 22.0125 27.025 22.275 26.8875 22.675L26.8375 22.825C26.2875 24.3875 24.5625 25.2 23.0125 24.65C21.4625 24.1 20.6375 22.375 21.1875 20.825L21.2375 20.675L21.225 20.6625ZM28 44C28 42.9391 28.4214 41.9217 29.1716 41.1716C29.9217 40.4214 30.9391 40 32 40C33.0609 40 34.0783 40.4214 34.8284 41.1716C35.5786 41.9217 36 42.9391 36 44C36 45.0609 35.5786 46.0783 34.8284 46.8284C34.0783 47.5786 33.0609 48 32 48C30.9391 48 29.9217 47.5786 29.1716 46.8284C28.4214 46.0783 28 45.0609 28 44Z" fill="white"/>
</g>
<defs>
<clipPath id="clip0_239_130">
<rect width="64" height="64" fill="white"/>
</clipPath>
</defs>
</svg>
