<svg width="61" height="61" viewBox="0 0 61 61" fill="none" xmlns="http://www.w3.org/2000/svg">
<g id="paper-plane-solid 1" clip-path="url(#clip0_83_8)">
<path id="Vector" d="M59.3437 0.667155C60.547 1.50114 61.1785 2.94274 60.9521 4.38434L53.3271 53.9468C53.1484 55.1025 52.4455 56.1152 51.4209 56.6871C50.3963 57.2589 49.1691 57.3304 48.0849 56.8777L33.8357 50.9564L25.6746 59.7847C24.6142 60.9404 22.9463 61.3216 21.4808 60.7498C20.0154 60.1779 19.0623 58.7601 19.0623 57.1875V47.2273C19.0623 46.7507 19.241 46.298 19.5627 45.9525L39.5306 24.1617C40.2216 23.4111 40.1978 22.2554 39.483 21.5406C38.7681 20.8258 37.6125 20.7781 36.8619 21.4572L12.6287 42.9859L2.10857 37.7199C0.845675 37.0884 0.0355183 35.8256 -0.000223929 34.4197C-0.0359661 33.0138 0.702706 31.7033 1.91794 31.0004L55.2929 0.500358C56.5677 -0.2264 58.1404 -0.154916 59.3437 0.667155Z" fill="#FF8A00"/>
</g>
<defs>
<clipPath id="clip0_83_8">
<rect width="61" height="61" fill="white"/>
</clipPath>
</defs>
</svg>
