<svg width="77" height="62" viewBox="0 0 77 62" fill="none" xmlns="http://www.w3.org/2000/svg">
<g id="couch-solid 1">
<path id="Vector" d="M7.7 19.375C7.7 10.8137 14.5939 3.875 23.1 3.875H53.9C62.4061 3.875 69.3 10.8137 69.3 19.375V23.4438C64.9086 24.3398 61.6 28.2512 61.6 32.9375V38.75H15.4V32.9375C15.4 28.2512 12.0914 24.3398 7.7 23.4438V19.375ZM65.45 32.9375C65.45 30.4066 67.0622 28.2512 69.3 27.452C69.9016 27.234 70.5512 27.125 71.225 27.125C74.4133 27.125 77 29.7285 77 32.9375V54.25C77 56.3934 75.2795 58.125 73.15 58.125H69.3C67.1705 58.125 65.45 56.3934 65.45 54.25H11.55C11.55 56.3934 9.82953 58.125 7.7 58.125H3.85C1.72047 58.125 0 56.3934 0 54.25V32.9375C0 29.7285 2.58672 27.125 5.775 27.125C6.44875 27.125 7.09844 27.2461 7.7 27.452C9.93781 28.2512 11.55 30.4066 11.55 32.9375V38.75V42.625H15.4H61.6H65.45V38.75V32.9375Z" fill="#FF8A00"/>
</g>
</svg>
