<svg width="82" height="82" viewBox="0 0 82 82" fill="none" xmlns="http://www.w3.org/2000/svg">
<g id="comment-regular 1" clip-path="url(#clip0_237_100)">
<path id="Vector" d="M19.7953 62.6691C21.8613 61.1637 24.536 60.7793 26.9383 61.6441C31.1824 63.1816 35.9391 64.0625 41 64.0625C60.9715 64.0625 74.3125 51.1699 74.3125 38.4375C74.3125 25.7051 60.9715 12.8125 41 12.8125C21.0285 12.8125 7.68751 25.7051 7.68751 38.4375C7.68751 43.5625 9.67345 48.4953 13.4051 52.7234C14.7824 54.277 15.4551 56.327 15.2949 58.409C15.0707 61.3078 14.382 63.9664 13.4852 66.3207C16.2078 65.0555 18.466 63.6461 19.7953 62.6852V62.6691ZM3.39533 69.1715C3.68361 68.7391 3.95587 68.3066 4.21212 67.8742C5.81369 65.2156 7.33517 61.7242 7.63947 57.8004C2.83478 52.3391 1.31223e-05 45.6605 1.31223e-05 38.4375C1.31223e-05 20.0355 18.3539 5.125 41 5.125C63.6461 5.125 82 20.0355 82 38.4375C82 56.8395 63.6461 71.75 41 71.75C35.0582 71.75 29.4207 70.725 24.3277 68.8832C22.4219 70.2766 19.3149 72.1824 15.6313 73.784C13.2129 74.841 10.4582 75.802 7.60744 76.3625C7.47931 76.3945 7.35119 76.4106 7.22306 76.4426C6.51837 76.5707 5.8297 76.6828 5.109 76.7469C5.07697 76.7469 5.02892 76.7629 4.99689 76.7629C4.18009 76.843 3.36329 76.891 2.5465 76.891C1.50548 76.891 0.576576 76.2664 0.176185 75.3055C-0.224206 74.3445 1.30888e-05 73.2555 0.720716 72.5188C1.37736 71.8461 1.96994 71.1254 2.53048 70.3566C2.80275 69.9883 3.059 69.6199 3.29923 69.2516C3.31525 69.2195 3.33126 69.2035 3.34728 69.1715H3.39533Z" fill="#FF8A00"/>
</g>
<defs>
<clipPath id="clip0_237_100">
<rect width="82" height="82" fill="white"/>
</clipPath>
</defs>
</svg>
