<svg width="71" height="57" viewBox="0 0 71 57" fill="none" xmlns="http://www.w3.org/2000/svg">
<g id="user-check-solid 1" clip-path="url(#clip0_83_12)">
<path id="Vector" d="M10.65 14.25C10.65 10.4707 12.1461 6.84612 14.8091 4.17373C17.4721 1.50134 21.0839 0 24.85 0C28.6161 0 32.2279 1.50134 34.8909 4.17373C37.5539 6.84612 39.05 10.4707 39.05 14.25C39.05 18.0293 37.5539 21.6539 34.8909 24.3263C32.2279 26.9987 28.6161 28.5 24.85 28.5C21.0839 28.5 17.4721 26.9987 14.8091 24.3263C12.1461 21.6539 10.65 18.0293 10.65 14.25ZM0 53.6936C0 42.7277 8.85281 33.8438 19.7802 33.8438H29.9198C40.8472 33.8438 49.7 42.7277 49.7 53.6936C49.7 55.5193 48.2245 57 46.4052 57H3.29484C1.47547 57 0 55.5193 0 53.6936ZM69.3359 19.7051L55.1359 33.9551C54.0931 35.0016 52.4069 35.0016 51.3752 33.9551L44.2752 26.8301C43.2323 25.7836 43.2323 24.0914 44.2752 23.0561C45.318 22.0207 47.0042 22.0096 48.0359 23.0561L53.25 28.2885L65.5641 15.9199C66.6069 14.8734 68.2931 14.8734 69.3249 15.9199C70.3566 16.9664 70.3677 18.6586 69.3249 19.6939L69.3359 19.7051Z" fill="#FF8A00"/>
</g>
<defs>
<clipPath id="clip0_83_12">
<rect width="71" height="57" fill="white"/>
</clipPath>
</defs>
</svg>
