<svg width="55" height="43" viewBox="0 0 55 43" fill="none" xmlns="http://www.w3.org/2000/svg">
<g clip-path="url(#clip0_322_315)">
<path d="M7.51841 25.6015C8.3539 24.0858 8.09814 22.2222 6.879 20.9798C5.06307 19.1245 4.09117 16.8965 4.09117 14.5774C4.09117 9.31792 9.53042 3.97565 17.7319 3.97565C25.9334 3.97565 31.3727 9.31792 31.3727 14.5774C31.3727 19.8368 25.9334 25.1791 17.7319 25.1791C16.6151 25.1791 15.5323 25.0714 14.5093 24.8809C13.6226 24.7153 12.7019 24.8312 11.892 25.2288C11.5424 25.4027 11.1844 25.5684 10.8178 25.7257C9.45369 26.3221 8.01288 26.8439 6.56355 27.2166C6.80227 26.8356 7.02393 26.4629 7.23707 26.0902C7.33085 25.9328 7.42463 25.7672 7.50988 25.6015H7.51841ZM-0.00105511 14.5774C-0.00105511 18.0395 1.46533 21.2117 3.91213 23.7131C3.8354 23.8539 3.75015 24.003 3.67342 24.1355C2.7953 25.6595 1.77224 27.1586 0.5531 28.4507C-0.00958057 29.0305 -0.154514 29.8753 0.160929 30.5959C0.493422 31.3331 1.22661 31.8052 2.04506 31.8052C5.71101 31.8052 9.41958 30.7036 12.5058 29.3452C12.915 29.163 13.3242 28.9725 13.7164 28.782C15.0038 29.0305 16.3508 29.1547 17.7319 29.1547C27.5277 29.1547 35.4649 22.6281 35.4649 14.5774C35.4649 6.52669 27.5277 0 17.7319 0C7.93615 0 -0.00105511 6.52669 -0.00105511 14.5774ZM36.829 39.7565C38.2101 39.7565 39.5486 39.624 40.8445 39.3838C41.2366 39.5743 41.6458 39.7648 42.0551 39.947C45.1413 41.3053 48.8499 42.4069 52.5158 42.4069C53.3343 42.4069 54.0675 41.9348 54.3914 41.2059C54.7154 40.4771 54.5619 39.6322 53.9992 39.0607C52.7886 37.7686 51.7656 36.2695 50.8789 34.7455C50.8022 34.6047 50.7169 34.4639 50.6402 34.3231C53.0955 31.8135 54.5619 28.6412 54.5619 25.1791C54.5619 17.3603 47.068 10.9744 37.6645 10.6183C38.014 11.8772 38.193 13.2025 38.193 14.5774V14.6271C45.6272 15.182 50.4697 20.2178 50.4697 25.1791C50.4697 27.4982 49.4978 29.7262 47.6819 31.5733C46.4627 32.8157 46.207 34.6875 47.0425 36.195C47.1362 36.3606 47.23 36.5263 47.3153 36.6836C47.5284 37.0563 47.7586 37.4291 47.9888 37.8101C46.5395 37.4373 45.0987 36.9238 43.7346 36.3192C43.368 36.1618 43.0099 35.9962 42.6604 35.8222C41.8505 35.4247 40.9297 35.3087 40.0431 35.4744C39.0115 35.6731 37.9373 35.7725 36.8204 35.7725C31.5602 35.7725 27.4424 33.5777 25.1576 30.6125C23.7935 31.0597 22.3612 31.391 20.8949 31.5898C23.785 36.4269 29.8381 39.7565 36.829 39.7565Z" fill="white"/>
</g>
<defs>
<clipPath id="clip0_322_315">
<rect width="54.563" height="42.4069" fill="white"/>
</clipPath>
</defs>
</svg>
