<svg width="66" height="65" viewBox="0 0 66 65" fill="none" xmlns="http://www.w3.org/2000/svg">
<g clip-path="url(#clip0_329_68)">
<path d="M35.4815 11.9989C35.0264 11.053 34.0646 10.451 33.0083 10.451C31.9521 10.451 30.9989 11.053 30.5352 11.9989L25.0135 23.3757L12.6819 25.1987C11.6514 25.3535 10.7927 26.0758 10.475 27.0647C10.1572 28.0536 10.4149 29.1457 11.1534 29.8767L20.1015 38.7425L17.989 51.2715C17.8172 52.3034 18.2466 53.3525 19.0967 53.9631C19.9469 54.5736 21.0718 54.651 21.9993 54.1608L33.0169 48.2704L44.0346 54.1608C44.962 54.651 46.087 54.5822 46.9371 53.9631C47.7873 53.3439 48.2167 52.3034 48.0449 51.2715L45.9238 38.7425L54.8719 29.8767C55.6104 29.1457 55.8766 28.0536 55.5503 27.0647C55.224 26.0758 54.3738 25.3535 53.3433 25.1987L41.0032 23.3757L35.4815 11.9989Z" fill="#0085FF"/>
</g>
<g clip-path="url(#clip1_329_68)">
<path d="M22.6651 14.6266C21.7324 14.145 20.602 14.2431 19.7585 14.8788C18.9149 15.5144 18.5159 16.5688 18.7148 17.6033L21.1517 30.0123L12.4004 38.8895C11.6706 39.6333 11.4195 40.727 11.7609 41.708C12.1023 42.689 12.9652 43.4061 13.9949 43.5454L26.4768 45.2409L32.3298 56.5183C32.8137 57.4458 33.7879 58.0253 34.8343 58.0012C35.8807 57.9772 36.8257 57.362 37.2714 56.4124L42.5256 45.0775L54.8696 43.1512C55.9053 42.9845 56.7623 42.2526 57.0687 41.2465C57.375 40.2404 57.0917 39.151 56.3335 38.4302L47.0994 29.7006L48.9101 17.235C49.06 16.2067 48.6154 15.1744 47.7596 14.581C46.9039 13.9876 45.7902 13.9223 44.8741 14.4189L33.9217 20.3894L22.6651 14.6266Z" fill="#0085FF"/>
</g>
<g clip-path="url(#clip2_329_68)">
<path d="M42.0733 26.4075C42.5903 27.0672 42.5903 28.1385 42.0733 28.7982L31.4854 42.3088C30.9684 42.9685 30.1289 42.9685 29.6119 42.3088L24.3179 35.5535C23.8009 34.8938 23.8009 33.8225 24.3179 33.1628C24.8349 32.5031 25.6745 32.5031 26.1915 33.1628L30.5507 38.7201L40.2039 26.4075C40.7209 25.7478 41.5605 25.7478 42.0775 26.4075H42.0733Z" fill="white"/>
</g>
<defs>
<clipPath id="clip0_329_68">
<rect width="49.4635" height="44.028" fill="white" transform="translate(8.26807 10.451)"/>
</clipPath>
<clipPath id="clip1_329_68">
<rect y="29.7679" width="49.4635" height="44.028" transform="rotate(-37 0 29.7679)" fill="white"/>
</clipPath>
<clipPath id="clip2_329_68">
<rect width="18.5288" height="27.0212" fill="white" transform="translate(23.9331 20.845)"/>
</clipPath>
</defs>
</svg>
