<svg width="49" height="56" viewBox="0 0 49 56" fill="none" xmlns="http://www.w3.org/2000/svg">
<g id="user-solid 1" clip-path="url(#clip0_75_18)">
<path id="Vector" d="M24.5 28C28.213 28 31.774 26.525 34.3995 23.8995C37.025 21.274 38.5 17.713 38.5 14C38.5 10.287 37.025 6.72601 34.3995 4.10051C31.774 1.475 28.213 0 24.5 0C20.787 0 17.226 1.475 14.6005 4.10051C11.975 6.72601 10.5 10.287 10.5 14C10.5 17.713 11.975 21.274 14.6005 23.8995C17.226 26.525 20.787 28 24.5 28ZM19.5016 33.25C8.72813 33.25 0 41.9781 0 52.7516C0 54.5453 1.45469 56 3.24844 56H45.7516C47.5453 56 49 54.5453 49 52.7516C49 41.9781 40.2719 33.25 29.4984 33.25H19.5016Z" fill="#FF8A00"/>
</g>
<defs>
<clipPath id="clip0_75_18">
<rect width="49" height="56" fill="white"/>
</clipPath>
</defs>
</svg>
